<svg aria-hidden="true" style="width:0;height:0;position:absolute;overflow:hidden" xmlns="http://www.w3.org/2000/svg" fill="none"><defs><symbol id="icon-star-1" viewBox="0 0 35 32"><path d="m17.6 2.589 3.37 10.372h10.906l-8.823 6.411.18.553 3.191 9.82-8.823-6.411-8.823 6.411 3.37-10.372-8.823-6.411h10.906l3.37-10.372z"/></symbol><symbol id="icon-location" viewBox="0 0 32 32"><path d="M27.636 16c0 6.427-5.21 11.636-11.636 11.636S4.364 22.426 4.364 16C4.364 9.573 9.574 4.364 16 4.364S27.636 9.574 27.636 16z"/><path d="M14.545 0h2.909v5.818h-2.909V0zM14.545 26.182h2.909V32h-2.909v-5.818zM5.818 14.545v2.909H0v-2.909h5.818zM32 14.545v2.909h-5.818v-2.909H32z"/></symbol><symbol id="vector-arrow-r" viewBox="0 0 22 32"><path d="M3.2 3.2 16 16 3.2 28.8"/></symbol><symbol id="vector-x" viewBox="0 0 32 32"><path d="m2.667 2.667 26.667 26.667m-26.667-.001L29.334 2.666"/></symbol><symbol id="linkedin" viewBox="0 0 32 32"><path d="M31.992 32v-.001H32V20.263c0-5.741-1.236-10.164-7.948-10.164-3.227 0-5.392 1.771-6.276 3.449h-.093v-2.913h-6.364v21.364h6.627V21.42c0-2.785.528-5.479 3.977-5.479 3.399 0 3.449 3.179 3.449 5.657v10.401h6.62zM.528 10.636h6.635V32H.528V10.636zM3.843 0C1.722 0 0 1.721 0 3.843s1.721 3.879 3.843 3.879c2.121 0 3.843-1.757 3.843-3.879A3.846 3.846 0 0 0 3.843 0z"/></symbol><symbol id="instagram" viewBox="0 0 32 32"><path d="M31.969 9.408c-.075-1.7-.35-2.869-.744-3.882a7.803 7.803 0 0 0-1.85-2.838A7.867 7.867 0 0 0 26.543.844C25.524.45 24.361.175 22.661.1 20.948.019 20.404 0 16.06 0s-4.888.019-6.595.094c-1.7.075-2.869.35-3.882.744a7.803 7.803 0 0 0-2.838 1.85A7.867 7.867 0 0 0 .901 5.52C.507 6.539.232 7.702.157 9.402c-.081 1.713-.1 2.257-.1 6.601s.019 4.888.094 6.595c.075 1.7.35 2.869.744 3.882a7.895 7.895 0 0 0 1.85 2.838 7.867 7.867 0 0 0 2.832 1.844c1.019.394 2.182.669 3.882.744 1.706.075 2.25.094 6.595.094s4.888-.018 6.595-.094c1.7-.075 2.869-.35 3.882-.744a8.181 8.181 0 0 0 4.682-4.682c.394-1.019.669-2.182.744-3.882.075-1.707.094-2.251.094-6.595s-.006-4.888-.081-6.595zm-2.882 13.065c-.069 1.563-.331 2.407-.55 2.969a5.307 5.307 0 0 1-3.038 3.038c-.563.219-1.413.481-2.969.55-1.688.075-2.194.094-6.464.094s-4.782-.018-6.464-.094c-1.563-.069-2.407-.331-2.969-.55a4.926 4.926 0 0 1-1.838-1.194 4.974 4.974 0 0 1-1.194-1.838c-.219-.563-.481-1.413-.55-2.969-.075-1.688-.094-2.194-.094-6.464s.019-4.782.094-6.464c.069-1.563.331-2.407.55-2.969a4.868 4.868 0 0 1 1.2-1.838A4.974 4.974 0 0 1 6.639 3.55c.563-.219 1.413-.481 2.969-.55 1.688-.075 2.194-.094 6.464-.094 4.276 0 4.782.019 6.464.094 1.563.069 2.407.331 2.969.55a4.914 4.914 0 0 1 1.838 1.194 4.974 4.974 0 0 1 1.194 1.838c.219.563.481 1.413.55 2.969.075 1.688.094 2.194.094 6.464s-.019 4.77-.094 6.457z"/><path d="M16.059 7.782c-4.538 0-8.22 3.682-8.22 8.22s3.682 8.22 8.22 8.22 8.22-3.682 8.22-8.22-3.682-8.22-8.22-8.22zm0 13.553a5.333 5.333 0 0 1 0-10.664 5.333 5.333 0 0 1 0 10.664zM26.524 7.457a1.919 1.919 0 1 1-3.838 0 1.919 1.919 0 0 1 3.838 0z"/></symbol><symbol id="facebook" viewBox="0 0 32 32"><path d="M21.329 5.313h2.921V.225C23.746.156 22.013 0 19.994 0c-4.212 0-7.097 2.649-7.097 7.519V12H8.249v5.688h4.648V32h5.699V17.689h4.46l.708-5.688h-5.169V8.082c.001-1.644.444-2.769 2.735-2.769z"/></symbol><symbol id="icon-heart" viewBox="0 0 32 32"><path d="M23.6 2c-3.363 0-6.258 2.736-7.599 5.594C14.659 4.736 11.764 2 8.4 2 3.763 2 0 5.764 0 10.401c0 9.433 9.516 11.906 16.001 21.232C22.131 22.365 32 19.533 32 10.401 32 5.764 28.237 2 23.6 2z"/></symbol><symbol id="icon-home3" viewBox="0 0 32 32"><path d="m32 19-6-6V4h-4v5l-6-6L0 19v1h4v10h10v-6h4v6h10V20h4z"/></symbol><symbol id="icon-phone" viewBox="0 0 32 32"><path d="M22 20c-2 2-2 4-4 4s-4-2-6-4-4-4-4-6 2-2 4-4-4-8-6-8-6 6-6 6c0 4 4.109 12.109 8 16s12 8 16 8c0 0 6-4 6-6s-6-8-8-6z"/></symbol><symbol id="icon-envelop" viewBox="0 0 32 32"><path d="M29 4H3C1.35 4 0 5.35 0 7v20c0 1.65 1.35 3 3 3h26c1.65 0 3-1.35 3-3V7c0-1.65-1.35-3-3-3zM12.461 17.199 4 23.789V8.113l8.461 9.086zM5.512 8h20.976L16 15.875 5.512 8zm7.278 9.553L16 21l3.21-3.447L25.79 26H6.211l6.58-8.447zm6.749-.354L28 8.113v15.676l-8.461-6.59z"/></symbol><symbol id="icon-mail" viewBox="0 0 32 32"><path d="M26.666 0H5.334C2.4 0 0 2.4 0 5.333v21.333C0 29.6 2.4 32 5.334 32h21.332C29.602 32 32 29.6 32 26.666V5.333C32 2.399 29.602 0 26.666 0zM8 8h16c.286 0 .563.061.817.177L16 18.463 7.183 8.176c.254-.116.531-.177.817-.177zM6 22V10c0-.042.002-.084.004-.125l5.864 6.842-5.8 5.8A1.983 1.983 0 0 1 5.999 22zm18 2H8c-.177 0-.35-.024-.517-.069l5.691-5.691L16 21.537l2.826-3.297 5.691 5.691c-.167.045-.34.069-.517.069zm2-2c0 .177-.024.35-.069.517l-5.8-5.8 5.864-6.842c.003.041.004.083.004.125v12z"/></symbol><symbol id="icon-whatsapp" viewBox="0 0 32 32"><path d="M27.281 4.65C24.287 1.65 20.306 0 16.062 0 7.324 0 .212 7.112.212 15.856c0 2.794.731 5.525 2.119 7.925L.081 32l8.406-2.206a15.858 15.858 0 0 0 7.575 1.931h.006c8.738 0 15.856-7.113 15.856-15.856 0-4.238-1.65-8.219-4.644-11.219zm-11.212 24.4a13.17 13.17 0 0 1-6.713-1.837l-.481-.288-4.987 1.306 1.331-4.863-.313-.5a13.086 13.086 0 0 1-2.019-7.012c0-7.269 5.912-13.181 13.188-13.181 3.519 0 6.831 1.375 9.319 3.862a13.108 13.108 0 0 1 3.856 9.325c-.006 7.275-5.919 13.188-13.181 13.188zm7.225-9.875c-.394-.2-2.344-1.156-2.706-1.288s-.625-.2-.894.2c-.262.394-1.025 1.288-1.256 1.556-.231.262-.462.3-.856.1s-1.675-.619-3.188-1.969c-1.175-1.05-1.975-2.35-2.206-2.744s-.025-.613.175-.806c.181-.175.394-.463.594-.694s.262-.394.394-.662c.131-.262.069-.494-.031-.694s-.894-2.15-1.219-2.944c-.319-.775-.65-.669-.894-.681-.231-.012-.494-.012-.756-.012s-.694.1-1.056.494c-.363.394-1.387 1.356-1.387 3.306s1.419 3.831 1.619 4.1c.2.262 2.794 4.269 6.769 5.981.944.406 1.681.65 2.256.837.95.3 1.813.256 2.494.156.762-.113 2.344-.956 2.675-1.881s.331-1.719.231-1.881c-.094-.175-.356-.275-.756-.475z"/></symbol><symbol id="icon-github" viewBox="0 0 32 32"><path d="M16 .395c-8.836 0-16 7.163-16 16 0 7.069 4.585 13.067 10.942 15.182.8.148 1.094-.347 1.094-.77 0-.381-.015-1.642-.022-2.979-4.452.968-5.391-1.888-5.391-1.888-.728-1.849-1.776-2.341-1.776-2.341-1.452-.993.11-.973.11-.973 1.606.113 2.452 1.649 2.452 1.649 1.427 2.446 3.743 1.739 4.656 1.33.143-1.034.558-1.74 1.016-2.14-3.554-.404-7.29-1.777-7.29-7.907 0-1.747.625-3.174 1.649-4.295-.166-.403-.714-2.03.155-4.234 0 0 1.344-.43 4.401 1.64a15.353 15.353 0 0 1 4.005-.539c1.359.006 2.729.184 4.008.539 3.054-2.07 4.395-1.64 4.395-1.64.871 2.204.323 3.831.157 4.234 1.026 1.12 1.647 2.548 1.647 4.295 0 6.145-3.743 7.498-7.306 7.895.574.497 1.085 1.47 1.085 2.963 0 2.141-.019 3.864-.019 4.391 0 .426.288.925 1.099.768C27.421 29.457 32 23.462 32 16.395c0-8.837-7.164-16-16-16z"/></symbol><symbol id="icon-cloudy" viewBox="0 0 32 32"><path fill="#eee1dc" style="fill:var(--color1,#eee1dc)" d="M26.888 20.96c-3.317 0-11.015-2.423-14.428-5.445-1.259-1.114-1.897-2.262-1.897-3.411a4.63 4.63 0 0 1 5.908-4.444 4.62 4.62 0 0 1 4.374-3.114c1.671 0 3.199.909 4.013 2.325a4.63 4.63 0 0 1 4.933 5.494 4.653 4.653 0 0 1 2.21 3.944 4.37 4.37 0 0 1-1.377 3.194c-.81.77-1.923 1.276-3.134 1.424-.179.022-.38.033-.601.033z"/><path fill="#e0d2cd" style="fill:var(--color2,#e0d2cd)" d="M29.79 12.366a4.63 4.63 0 0 0-4.933-5.494 4.647 4.647 0 0 0-3.576-2.304v15.323c2.204.673 4.264 1.07 5.607 1.07.22 0 .421-.011.601-.033 1.211-.148 2.324-.654 3.134-1.424A4.373 4.373 0 0 0 32 16.31a4.654 4.654 0 0 0-2.21-3.944z"/><path fill="#fff4f4" style="fill:var(--color3,#fff4f4)" d="M13.321 27.454a4.7 4.7 0 0 1-4.017-2.272 3.927 3.927 0 0 1-2.042.576 3.933 3.933 0 0 1-3.746-2.77 3.919 3.919 0 0 1 .011-7.795A3.907 3.907 0 0 1 4.6 13.505a3.903 3.903 0 0 1 2.662-1.043c.72 0 1.421.202 2.026.567a4.697 4.697 0 0 1 4.033-2.3 4.697 4.697 0 0 1 4.033 2.3 3.91 3.91 0 0 1 4.688.476 3.91 3.91 0 0 1 1.073 1.689 3.918 3.918 0 0 1 .011 7.795 3.932 3.932 0 0 1-3.746 2.77 3.93 3.93 0 0 1-2.042-.576 4.7 4.7 0 0 1-4.017 2.272z"/><path fill="#f6efea" style="fill:var(--color4,#f6efea)" d="M25.317 16.155a3.922 3.922 0 0 0-2.203-.961 3.91 3.91 0 0 0-1.073-1.689 3.903 3.903 0 0 0-2.662-1.043c-.72 0-1.421.202-2.026.567a4.697 4.697 0 0 0-4.033-2.3v16.725a4.7 4.7 0 0 0 4.017-2.272 3.927 3.927 0 0 0 2.042.576 3.933 3.933 0 0 0 3.746-2.77 3.92 3.92 0 0 0 2.192-6.834z"/></symbol><symbol id="icon-sun" viewBox="0 0 32 32"><path fill="#fdbf00" style="fill:var(--color5,#fdbf00)" d="M16 24.688c-4.79 0-8.688-3.897-8.688-8.688S11.209 7.312 16 7.312c4.79 0 8.688 3.897 8.688 8.688S20.791 24.688 16 24.688zM16 5.103a.938.938 0 0 1-.938-.938V.937a.938.938 0 0 1 1.876 0v3.228c0 .518-.42.938-.938.938z"/><path fill="#ff8856" style="fill:var(--color6,#ff8856)" d="M31.063 16.938h-3.228a.938.938 0 0 1 0-1.876h3.228a.938.938 0 0 1 0 1.876z"/><path fill="#fdbf00" style="fill:var(--color5,#fdbf00)" d="M16 32a.938.938 0 0 1-.938-.938v-3.228a.938.938 0 0 1 1.876 0v3.228c0 .518-.42.938-.938.938zM4.165 16.938H.937a.938.938 0 0 1 0-1.876h3.228a.938.938 0 0 1 0 1.876z"/><path fill="#ff8856" style="fill:var(--color6,#ff8856)" d="M24.369 8.569a.938.938 0 0 1-.663-1.601l2.282-2.282a.938.938 0 0 1 1.326 1.326l-2.282 2.282a.935.935 0 0 1-.663.275zM26.651 27.588a.935.935 0 0 1-.663-.275l-2.282-2.282a.938.938 0 0 1 1.326-1.326l2.282 2.282a.938.938 0 0 1-.663 1.601z"/><path fill="#fdbf00" style="fill:var(--color5,#fdbf00)" d="M5.349 27.588a.938.938 0 0 1-.663-1.601l2.282-2.282a.938.938 0 0 1 1.326 1.326l-2.282 2.282a.935.935 0 0 1-.663.275zM7.631 8.569a.931.931 0 0 1-.663-.275L4.686 6.012a.938.938 0 0 1 1.326-1.326l2.282 2.282a.938.938 0 0 1-.663 1.601z"/><path fill="#ff8856" style="fill:var(--color6,#ff8856)" d="M20.541 6.009a.938.938 0 0 1-.865-1.298l1.239-2.981a.938.938 0 0 1 1.732.72l-1.239 2.981a.94.94 0 0 1-.866.578zM29.909 22.718a.936.936 0 0 1-.36-.072l-2.98-1.239a.938.938 0 1 1 .72-1.732l2.981 1.239a.937.937 0 0 1-.36 1.803z"/><path fill="#fdbf00" style="fill:var(--color5,#fdbf00)" d="M10.219 30.847a.936.936 0 0 1-.866-1.297l1.239-2.981a.938.938 0 1 1 1.732.72l-1.239 2.98a.94.94 0 0 1-.866.578zM5.071 12.396a.928.928 0 0 1-.359-.072l-2.981-1.239a.938.938 0 1 1 .72-1.732l2.981 1.239a.938.938 0 0 1-.36 1.804z"/><path fill="#ff8856" style="fill:var(--color6,#ff8856)" d="M26.94 12.421a.939.939 0 0 1-.358-1.804l2.983-1.232a.937.937 0 0 1 .715 1.733l-2.983 1.232a.94.94 0 0 1-.357.071zM21.748 30.861a.937.937 0 0 1-.867-.58l-1.232-2.983a.936.936 0 1 1 1.733-.715l1.232 2.983a.936.936 0 0 1-.866 1.295z"/><path fill="#fdbf00" style="fill:var(--color5,#fdbf00)" d="M2.078 22.685a.937.937 0 0 1-.358-1.804l2.983-1.232a.936.936 0 1 1 .715 1.733l-2.983 1.232a.94.94 0 0 1-.357.071zM11.484 5.999a.937.937 0 0 1-.867-.58L9.385 2.436a.936.936 0 1 1 1.733-.715l1.232 2.983a.936.936 0 0 1-.866 1.295z"/><path fill="#ff8856" style="fill:var(--color6,#ff8856)" d="M16 0v5.103c.518 0 .938-.42.938-.938V.937A.938.938 0 0 0 16-.001zM16 7.313v17.375c4.79 0 8.688-3.897 8.688-8.688S20.791 7.312 16 7.312zM16 26.897V32c.518 0 .938-.42.938-.938v-3.228a.938.938 0 0 0-.938-.938z"/></symbol><symbol id="icon-wind" viewBox="0 0 32 32"><path fill="#fff" style="fill:var(--color7,#fff)" opacity=".54" d="M25.316 2.643a6.712 6.712 0 0 0-4.185 1.472.937.937 0 1 0 1.174 1.462 4.827 4.827 0 0 1 3.011-1.059c2.652 0 4.809 2.157 4.809 4.809s-2.157 4.809-4.809 4.809H7.688a.938.938 0 0 0 0 1.876h17.628c3.686 0 6.684-2.999 6.684-6.684s-2.999-6.684-6.684-6.684z"/><path fill="#fff" style="fill:var(--color7,#fff)" opacity=".54" d="M5.891 12.268h10.015a.937.937 0 0 0 0-1.876H5.891a.938.938 0 0 0 0 1.876zM15.643 17.893H.937a.938.938 0 0 0 0 1.875h14.706c2.126 0 3.857 1.73 3.857 3.857s-1.73 3.857-3.857 3.857a3.872 3.872 0 0 1-2.414-.849.937.937 0 1 0-1.174 1.462 5.75 5.75 0 0 0 3.588 1.262c3.16 0 5.732-2.571 5.732-5.732s-2.571-5.732-5.732-5.732zM.938 12.268h1.265a.938.938 0 0 0 0-1.876H.938a.938.938 0 0 0 0 1.876z"/><path fill="#fff" style="fill:var(--color7,#fff)" opacity=".54" d="M12.25 22.563a.938.938 0 0 0-.938-.938H5.687a.938.938 0 0 0 0 1.875h5.625c.518 0 .938-.42.938-.937z"/></symbol><symbol id="icon-humidity" viewBox="0 0 32 32"><path fill="#fff" style="fill:var(--color7,#fff)" opacity=".54" d="M28.62 9.399c-.597-1.021-1.234-1.986-1.796-2.718-.828-1.079-1.317-1.461-1.868-1.461-.523 0-.948.366-1.426.916-.352.405-.771.966-1.212 1.624a31.784 31.784 0 0 0-1.759 2.965 62.943 62.943 0 0 0-1.461-2.643c-1.203-2.059-2.486-4.001-3.613-5.47C13.637.203 12.943.002 12.437.002s-1.201.202-3.049 2.611c-1.127 1.469-2.41 3.411-3.612 5.47C4.33 10.557.968 16.722.968 20.534c0 6.324 5.145 11.469 11.469 11.469 5.934 0 10.829-4.529 11.411-10.312a6.082 6.082 0 0 0 7.183-5.973c0-1.906-1.511-4.776-2.411-6.316zM12.437 30.125c-5.29 0-9.594-4.304-9.594-9.594 0-2.233 1.6-6.358 4.279-11.034 2.392-4.173 4.524-6.857 5.315-7.519.791.662 2.923 3.345 5.315 7.519 2.679 4.676 4.279 8.801 4.279 11.034 0 5.29-4.304 9.594-9.594 9.594zm12.519-10.21a4.24 4.24 0 0 1-1.09-.143c-.207-2.066-1.185-4.634-2.256-6.925 1.043-2.328 2.589-4.622 3.345-5.498.477.55 1.322 1.709 2.262 3.37 1.214 2.147 1.939 4.014 1.939 4.995 0 2.316-1.884 4.2-4.2 4.2z"/><path fill="#fff" style="fill:var(--color7,#fff)" opacity=".54" d="M15.011 16.073a.938.938 0 0 0-1.281.343l-4.21 7.293a.938.938 0 0 0 1.624.938l4.21-7.293a.938.938 0 0 0-.343-1.281zM10.094 17.937a.94.94 0 0 0-1.876 0c0 .516.421.938.938.938s.938-.421.938-.938zM15.406 22.312c-.516 0-.938.421-.938.937s.421.938.938.938a.938.938 0 0 0 0-1.875z"/></symbol><symbol id="icon-barometer" viewBox="0 0 32 32"><path fill="#fff" style="fill:var(--color7,#fff)" opacity=".54" d="M18.489 4.12c.206-.391.324-.836.324-1.308 0-1.551-1.262-2.813-2.812-2.813s-2.812 1.262-2.812 2.813c0 .472.117.917.324 1.308C6.949 5.298 1.952 11.051 1.952 17.949c0 7.747 6.303 14.05 14.05 14.05s14.05-6.303 14.05-14.05c0-6.898-4.997-12.651-11.561-13.829zM16 1.875c.517 0 .938.421.938.938s-.421.938-.938.938a.938.938 0 0 1 0-1.876zm0 28.25c-6.713 0-12.175-5.462-12.175-12.175S9.287 5.775 16 5.775c6.713 0 12.175 5.462 12.175 12.175S22.713 30.125 16 30.125z"/><path fill="#fff" style="fill:var(--color7,#fff)" opacity=".54" d="m23.332 10.69-.04-.044c-.014-.014-.031-.028-.047-.042A10.293 10.293 0 0 0 16 7.626a10.29 10.29 0 0 0-7.267 2.998l-.025.022-.019.021a10.292 10.292 0 0 0-3.014 7.284c0 .518.42.937.938.937h1.063a.938.938 0 1 0 0-1.875h-.073a8.415 8.415 0 0 1 1.805-4.342l.052.052a.935.935 0 0 0 1.326 0 .938.938 0 0 0 0-1.326l-.05-.05a8.407 8.407 0 0 1 4.328-1.794v.073a.938.938 0 1 0 1.875 0v-.073a8.405 8.405 0 0 1 4.327 1.795l-.05.05a.938.938 0 0 0 1.326 1.326l.051-.051a8.408 8.408 0 0 1 1.804 4.329h-.084a.938.938 0 1 0 0 1.875h1.076a.937.937 0 0 0 .936-.939 10.29 10.29 0 0 0-2.993-7.246z"/><path fill="#fff" style="fill:var(--color7,#fff)" opacity=".54" d="M20.251 13.698a.938.938 0 0 0-1.326 0l-3.915 3.915a2.8 2.8 0 0 0-1.407-.268.937.937 0 1 0 .131 1.87.936.936 0 0 1 1.001.989.937.937 0 0 0 1.872.109 2.813 2.813 0 0 0-.271-1.374l3.915-3.915a.938.938 0 0 0 0-1.326zM21.375 24.688h-10.75a.938.938 0 1 0 0 1.875h10.75a.937.937 0 0 0 0-1.875z"/></symbol><symbol id="icon-snow" viewBox="0 0 32 32"><path fill="#7dd5f4" style="fill:var(--color8,#7dd5f4)" d="M19.531 28.438a.938.938 0 0 0-.938-.938h-.33l.234-.234a.938.938 0 0 0-1.326-1.326l-.234.234v-.362a.937.937 0 0 0-1.876 0v.362l-.256-.256a.938.938 0 0 0-1.326 1.326l.256.256h-.33a.938.938 0 0 0 0 1.876h.33l-.234.234a.938.938 0 0 0 1.326 1.326l.234-.234v.362a.938.938 0 0 0 1.876 0v-.362l.256.256a.935.935 0 0 0 1.326 0 .938.938 0 0 0 0-1.326l-.256-.256h.33c.518 0 .938-.42.938-.938zM7.063 22.5a.938.938 0 0 0-.938-.938h-.33l.234-.234a.938.938 0 0 0-1.326-1.326l-.234.234v-.362a.938.938 0 0 0-1.876 0v.362l-.256-.256a.938.938 0 0 0-1.326 1.326l.256.256H.936a.938.938 0 0 0 0 1.876h.33l-.234.234a.938.938 0 0 0 1.326 1.326l.234-.234v.362a.938.938 0 0 0 1.876 0v-.362l.256.256a.935.935 0 0 0 1.326 0 .938.938 0 0 0 0-1.326l-.256-.256h.33c.518 0 .938-.42.938-.938z"/><path fill="#4793ff" style="fill:var(--color9,#4793ff)" d="M32 22.5a.938.938 0 0 0-.938-.938h-.33l.234-.234a.938.938 0 0 0-1.326-1.326l-.234.234v-.362a.938.938 0 0 0-1.876 0v.362l-.256-.256a.938.938 0 0 0-1.326 1.326l.256.256h-.33a.938.938 0 0 0 0 1.876h.33l-.234.234a.938.938 0 0 0 1.326 1.326l.234-.234v.362a.938.938 0 0 0 1.876 0v-.362l.256.256a.935.935 0 0 0 1.326 0 .938.938 0 0 0 0-1.326l-.256-.256h.33c.518 0 .938-.42.938-.938z"/><path fill="#fff4f4" style="fill:var(--color3,#fff4f4)" d="M10.781 23.375c.516 0 .938-.421.938-.938s-.421-.938-.938-.938-.938.421-.938.938a.94.94 0 0 0 .938.938zM21.219 23.375c.516 0 .938-.421.938-.938s-.421-.938-.938-.938-.938.421-.938.938a.94.94 0 0 0 .938.938zM5.688 32c.516 0 .938-.421.938-.938s-.421-.938-.938-.938c-.516 0-.938.421-.938.938s.421.938.938.938zM26.313 32c.516 0 .938-.421.938-.938s-.421-.938-.938-.938c-.516 0-.938.421-.938.938s.421.938.938.938zM16 19.938a5.516 5.516 0 0 1-3.452-1.218 5.514 5.514 0 0 1-1.364-1.628 4.574 4.574 0 0 1-2.553.784 4.579 4.579 0 0 1-4.4-3.356 4.56 4.56 0 0 1-4.23-4.55 4.568 4.568 0 0 1 4.242-4.551 4.557 4.557 0 0 1 1.288-2.095 4.552 4.552 0 0 1 5.635-.443 5.542 5.542 0 0 1 1.367-1.648C13.509.439 14.741.002 16.001.002s2.492.437 3.468 1.231a5.53 5.53 0 0 1 1.367 1.648 4.572 4.572 0 0 1 2.535-.772c1.153 0 2.254.431 3.1 1.215a4.539 4.539 0 0 1 1.288 2.096 4.562 4.562 0 0 1 .012 9.101 4.579 4.579 0 0 1-4.4 3.356c-.917 0-1.806-.28-2.553-.784a5.527 5.527 0 0 1-1.364 1.628 5.51 5.51 0 0 1-3.452 1.218z"/><path fill="#f6efea" style="fill:var(--color4,#f6efea)" d="M30.457 6.549a4.567 4.567 0 0 0-2.699-1.131 4.56 4.56 0 0 0-6.923-2.539 5.539 5.539 0 0 0-1.366-1.648A5.511 5.511 0 0 0 16.001 0v19.937a5.516 5.516 0 0 0 3.452-1.218 5.533 5.533 0 0 0 1.365-1.628 4.574 4.574 0 0 0 2.553.784 4.579 4.579 0 0 0 4.4-3.356 4.564 4.564 0 0 0 2.687-7.97z"/><path fill="#4793ff" style="fill:var(--color9,#4793ff)" d="M19.531 28.438a.938.938 0 0 0-.938-.938h-.33l.234-.234a.938.938 0 0 0-1.326-1.326l-.234.234v-.362a.937.937 0 0 0-.938-.937V32c.518 0 .938-.42.938-.938V30.7l.256.256a.935.935 0 0 0 1.326 0 .938.938 0 0 0 0-1.326l-.256-.256h.33c.518 0 .938-.42.938-.937z"/></symbol><symbol id="icon-weather" viewBox="0 0 32 32"><path fill="#fdbf00" style="fill:var(--color5,#fdbf00)" d="M16 25.375c-5.169 0-9.375-4.206-9.375-9.375S10.831 6.625 16 6.625c.518 0 .938.42.938.938v16.875c0 .518-.42.938-.938.938z"/><path fill="#7dd5f4" style="fill:var(--color8,#7dd5f4)" d="M31.063 15.063h-1.457l.714-1.237a.938.938 0 0 0-1.624-.938l-1.256 2.175h-9.177l6.489-6.489 2.425.65a.937.937 0 0 0 .485-1.811l-1.38-.37.942-.942a.938.938 0 0 0-1.326-1.326l-.942.942-.37-1.38a.938.938 0 0 0-1.811.485l.65 2.425-6.489 6.489V4.559l2.175-1.256a.938.938 0 0 0-.938-1.624l-1.237.714V.936a.938.938 0 0 0-1.876 0v30.125a.937.937 0 1 0 1.876-.001v-1.457l1.237.714a.938.938 0 1 0 .938-1.624l-2.175-1.256V18.26l6.489 6.489-.65 2.425a.938.938 0 0 0 1.811.485l.37-1.38.942.942a.935.935 0 0 0 1.326 0 .938.938 0 0 0 0-1.326l-.942-.942 1.38-.37a.938.938 0 0 0-.485-1.811l-2.425.65-6.489-6.489h9.177l1.256 2.175a.938.938 0 1 0 1.624-.938l-.714-1.237h1.457a.938.938 0 1 0 0-1.875z"/><path fill="#fdbf00" style="fill:var(--color5,#fdbf00)" d="M3.941 16.938H.938a.938.938 0 0 1 0-1.876h3.003a.938.938 0 0 1 0 1.876zM7.473 8.41a.931.931 0 0 1-.663-.275L4.686 6.011a.938.938 0 0 1 1.326-1.326l2.124 2.124a.938.938 0 0 1-.663 1.601zM5.349 27.588a.938.938 0 0 1-.663-1.601l2.124-2.124a.938.938 0 0 1 1.326 1.326l-2.124 2.124a.935.935 0 0 1-.663.275zM11.481 5.758a.936.936 0 0 1-.869-.586L9.486 2.388a.937.937 0 1 1 1.739-.702l1.126 2.784a.937.937 0 0 1-.869 1.289zM2.036 22.583a.936.936 0 0 1-.351-1.806l2.784-1.126a.937.937 0 1 1 .702 1.738l-2.784 1.126a.926.926 0 0 1-.351.069zM10.288 30.875a.938.938 0 0 1-.867-1.293l1.139-2.779a.938.938 0 0 1 1.735.711l-1.139 2.779a.938.938 0 0 1-.868.582zM4.841 12.365a.947.947 0 0 1-.355-.07l-2.779-1.139a.938.938 0 0 1 .711-1.735l2.779 1.139a.938.938 0 0 1-.356 1.805z"/><path fill="#4793ff" style="fill:var(--color9,#4793ff)" d="M31.063 15.063h-1.457l.714-1.237a.938.938 0 0 0-1.624-.938l-1.256 2.175h-9.177l6.489-6.489 2.425.65a.937.937 0 0 0 .485-1.811l-1.38-.37.942-.942a.938.938 0 0 0-1.326-1.326l-.942.942-.37-1.38a.938.938 0 0 0-1.811.485l.65 2.425-6.489 6.489V4.559l2.175-1.256a.938.938 0 0 0-.938-1.624l-1.237.714V.936a.938.938 0 0 0-.938-.938v32c.518 0 .938-.42.938-.938v-1.457l1.237.714a.938.938 0 1 0 .938-1.624l-2.175-1.256V18.26l6.489 6.489-.65 2.425a.938.938 0 0 0 1.811.485l.37-1.38.942.942a.935.935 0 0 0 1.326 0 .938.938 0 0 0 0-1.326l-.942-.942 1.38-.37a.938.938 0 0 0-.485-1.811l-2.425.65-6.489-6.489h9.177l1.256 2.175a.938.938 0 1 0 1.624-.938l-.714-1.237h1.457a.938.938 0 1 0 0-1.875z"/></symbol><symbol id="icon-sunrise" viewBox="0 0 32 32"><path fill="#ff6b09" style="fill:var(--color10,#ff6b09)" d="M16 5.103c.518 0 .937-.42.937-.938V.937a.938.938 0 1 0-1.875 0v3.228c0 .518.42.938.938.938zM31.063 15.063h-3.228a.937.937 0 0 0 0 1.875h3.228a.937.937 0 1 0 0-1.875zM5.103 16a.938.938 0 0 0-.938-.938H.937a.938.938 0 0 0 0 1.875h3.228c.518 0 .938-.42.938-.937zM24.368 8.569c.24 0 .48-.092.663-.275l2.282-2.282a.938.938 0 0 0-1.326-1.326l-2.282 2.282a.938.938 0 0 0 .663 1.601zM25.031 23.705a.938.938 0 0 0-1.326 1.326l2.282 2.282a.935.935 0 0 0 1.326 0 .938.938 0 0 0 0-1.326l-2.282-2.282zM6.969 23.705l-2.282 2.282a.938.938 0 0 0 1.326 1.326l2.282-2.282a.938.938 0 0 0-1.326-1.326zM6.969 8.294a.935.935 0 0 0 1.326 0 .938.938 0 0 0 0-1.326L6.013 4.686a.938.938 0 0 0-1.326 1.326l2.282 2.282zM20.182 5.937a.936.936 0 0 0 1.226-.506l1.239-2.981a.938.938 0 0 0-1.731-.72l-1.239 2.981a.937.937 0 0 0 .506 1.225zM30.269 20.915l-2.98-1.239a.937.937 0 1 0-.719 1.731l2.98 1.239a.936.936 0 1 0 .72-1.731zM11.818 26.063a.938.938 0 0 0-1.226.506l-1.239 2.98a.937.937 0 1 0 1.731.719l1.239-2.98a.937.937 0 0 0-.506-1.225zM1.731 11.085l2.98 1.239a.938.938 0 0 0 .719-1.732L2.449 9.353a.938.938 0 0 0-.72 1.732zM26.073 11.841a.937.937 0 0 0 1.224.509l2.983-1.232a.938.938 0 0 0-.715-1.733l-2.984 1.232a.938.938 0 0 0-.509 1.224zM21.383 26.582a.938.938 0 0 0-1.733.715l1.232 2.983a.937.937 0 1 0 1.733-.715l-1.232-2.983zM5.927 20.159a.938.938 0 0 0-1.224-.509L1.72 20.882a.938.938 0 0 0 .715 1.733l2.983-1.232a.938.938 0 0 0 .509-1.224zM10.617 5.419a.937.937 0 1 0 1.733-.715l-1.232-2.983a.938.938 0 0 0-1.733.715l1.232 2.983z"/><path fill="#ff6b09" style="fill:var(--color10,#ff6b09)" d="M16.937 24.637c4.351-.469 7.75-4.163 7.75-8.637 0-4.79-3.897-8.688-8.688-8.688S7.311 11.209 7.311 16c0 4.473 3.399 8.168 7.75 8.637v6.426a.937.937 0 0 0 1.875 0v-6.426zM9.188 16c0-3.756 3.056-6.813 6.813-6.813s6.812 3.056 6.812 6.813c0 3.438-2.561 6.289-5.875 6.748V19.17l.212.212a.938.938 0 0 0 1.326-1.326l-1.817-1.817a.937.937 0 0 0-1.316-.009l-1.875 1.821a.938.938 0 0 0 1.306 1.345l.289-.281v3.633c-3.314-.458-5.875-3.31-5.875-6.748z"/></symbol><symbol id="icon-sunset" viewBox="0 0 32 32"><path fill="#ff6b09" style="fill:var(--color10,#ff6b09)" d="M16 5.103c.518 0 .937-.42.937-.938V.937a.938.938 0 1 0-1.875 0v3.228c0 .518.42.938.938.938zM31.063 15.063h-3.228a.937.937 0 0 0 0 1.875h3.228a.937.937 0 1 0 0-1.875zM5.103 16a.938.938 0 0 0-.938-.938H.937a.938.938 0 0 0 0 1.875h3.228c.518 0 .938-.42.938-.937zM24.368 8.569c.24 0 .48-.092.663-.275l2.282-2.282a.938.938 0 0 0-1.326-1.326l-2.282 2.282a.938.938 0 0 0 .663 1.601zM25.031 23.705a.938.938 0 0 0-1.326 1.326l2.282 2.282a.935.935 0 0 0 1.326 0 .938.938 0 0 0 0-1.326l-2.282-2.282zM6.969 23.705l-2.282 2.282a.938.938 0 0 0 1.326 1.326l2.282-2.282a.938.938 0 0 0-1.326-1.326zM6.969 8.294a.935.935 0 0 0 1.326 0 .938.938 0 0 0 0-1.326L6.013 4.686a.938.938 0 0 0-1.326 1.326l2.282 2.282zM20.182 5.937a.936.936 0 0 0 1.226-.506l1.239-2.981a.938.938 0 0 0-1.731-.72l-1.239 2.981a.937.937 0 0 0 .506 1.225zM30.269 20.915l-2.98-1.239a.938.938 0 0 0-.72 1.731l2.981 1.239a.937.937 0 1 0 .719-1.732zM11.818 26.063a.938.938 0 0 0-1.226.506l-1.239 2.98a.938.938 0 0 0 1.731.72l1.239-2.98a.937.937 0 0 0-.506-1.225zM1.731 11.085l2.981 1.239a.938.938 0 0 0 .719-1.732L2.45 9.353a.938.938 0 0 0-.72 1.732zM26.073 11.841a.937.937 0 0 0 1.224.509l2.983-1.232a.938.938 0 0 0-.715-1.733l-2.983 1.232a.938.938 0 0 0-.509 1.224zM21.383 26.582a.938.938 0 0 0-1.733.715l1.232 2.984a.937.937 0 1 0 1.733-.715l-1.232-2.983zM5.927 20.158a.938.938 0 0 0-1.224-.509L1.72 20.881a.938.938 0 0 0 .715 1.733l2.983-1.232a.938.938 0 0 0 .509-1.224zM10.617 5.419a.937.937 0 1 0 1.733-.715l-1.232-2.983a.938.938 0 0 0-1.733.715l1.232 2.983z"/><path fill="#ff6b09" style="fill:var(--color10,#ff6b09)" d="m17.15 28.582-.212.212v-4.158c4.351-.469 7.75-4.163 7.75-8.637 0-4.79-3.897-8.688-8.688-8.688s-8.688 3.897-8.688 8.688c0 4.473 3.399 8.168 7.75 8.637v4.213l-.289-.281a.938.938 0 0 0-1.307 1.345l1.875 1.822a.934.934 0 0 0 1.316-.01l1.817-1.817a.938.938 0 0 0-1.326-1.326zM9.188 16c0-3.756 3.056-6.812 6.813-6.812s6.812 3.056 6.812 6.812c0 3.438-2.561 6.289-5.875 6.748v-2.225a.937.937 0 1 0-1.875 0v2.225C11.749 22.29 9.188 19.439 9.188 16z"/></symbol><symbol id="icon-clouds-and-sun" viewBox="0 0 32 32"><path fill="#fdbf00" style="fill:var(--color5,#fdbf00)" d="M19.218 21.205c-3.847 0-6.995-3.112-7.03-6.967-.036-3.877 3.09-7.06 6.966-7.096h.066c3.847 0 6.995 3.112 7.03 6.967.036 3.877-3.09 7.06-6.966 7.096h-.066z"/><path fill="#ff8856" style="fill:var(--color6,#ff8856)" d="M19.22 7.142h-.001v14.063h.065c3.877-.035 7.002-3.219 6.966-7.096-.035-3.855-3.183-6.967-7.03-6.967z"/><path fill="#fdbf00" style="fill:var(--color5,#fdbf00)" d="M19.246 5.806a.937.937 0 0 1-.937-.929l-.023-2.538a.937.937 0 0 1 .929-.946h.009c.514 0 .933.414.937.929l.023 2.538a.937.937 0 0 1-.929.946h-.009z"/><path fill="#ff8856" style="fill:var(--color6,#ff8856)" d="M28.525 15.026a.937.937 0 0 1-.008-1.875l2.547-.023a.937.937 0 0 1 .008 1.875l-2.538.023h-.009zM25.851 8.471a.936.936 0 0 1-.669-1.594l1.778-1.811a.938.938 0 0 1 1.338 1.314L26.52 8.191a.933.933 0 0 1-.669.281z"/><path fill="#fdbf00" style="fill:var(--color5,#fdbf00)" d="M12.691 8.592a.936.936 0 0 1-.657-.268l-1.811-1.778a.938.938 0 0 1 1.314-1.338l1.811 1.778a.938.938 0 0 1-.657 1.607z"/><path fill="#ff8856" style="fill:var(--color6,#ff8856)" d="M22.824 6.486a.937.937 0 0 1-.868-1.29l.952-2.352a.938.938 0 0 1 1.738.704L23.694 5.9a.938.938 0 0 1-.869.586zM30.31 19.556a.926.926 0 0 1-.351-.069l-2.352-.952a.937.937 0 1 1 .704-1.738l2.352.952a.937.937 0 0 1-.352 1.807z"/><path fill="#fdbf00" style="fill:var(--color5,#fdbf00)" d="M10.706 11.619a.926.926 0 0 1-.351-.069l-2.352-.953a.937.937 0 1 1 .704-1.738l2.352.952a.937.937 0 0 1-.352 1.807z"/><path fill="#ff8856" style="fill:var(--color6,#ff8856)" d="M27.901 11.482a.937.937 0 0 1-.366-1.801l2.337-.99a.937.937 0 1 1 .731 1.727l-2.337.99a.941.941 0 0 1-.365.074z"/><path fill="#fdbf00" style="fill:var(--color5,#fdbf00)" d="M15.702 6.543a.94.94 0 0 1-.864-.572l-.99-2.337a.937.937 0 1 1 1.727-.731l.99 2.337a.937.937 0 0 1-.863 1.304z"/><path fill="#fff4f4" style="fill:var(--color3,#fff4f4)" d="M13.937 30.607a4.883 4.883 0 0 1-4.201-2.403 4.074 4.074 0 0 1-2.159.623 4.081 4.081 0 0 1-3.897-2.905 4.066 4.066 0 0 1 .011-8.097 4.064 4.064 0 0 1 1.123-1.782 4.056 4.056 0 0 1 4.906-.47 4.875 4.875 0 0 1 8.436 0 4.08 4.08 0 0 1 2.143-.613 4.05 4.05 0 0 1 2.763 1.083c.53.491.914 1.105 1.123 1.782a4.065 4.065 0 0 1 .011 8.097 4.083 4.083 0 0 1-3.897 2.905 4.071 4.071 0 0 1-2.159-.623 4.895 4.895 0 0 1-1.141 1.323 4.885 4.885 0 0 1-3.06 1.08z"/><path fill="#f6efea" style="fill:var(--color4,#f6efea)" d="M26.5 18.827a4.079 4.079 0 0 0-2.317-1.001 4.058 4.058 0 0 0-1.123-1.782 4.056 4.056 0 0 0-4.906-.47 4.875 4.875 0 0 0-4.218-2.431v17.464a4.877 4.877 0 0 0 4.201-2.403c.64.401 1.389.623 2.159.623a4.081 4.081 0 0 0 3.897-2.905 4.066 4.066 0 0 0 2.306-7.096z"/><path fill="#ff8856" style="fill:var(--color6,#ff8856)" d="M20.16 2.322a.937.937 0 0 0-.937-.929h-.004v4.411l.028.001h.009a.937.937 0 0 0 .929-.946l-.023-2.538z"/></symbol><symbol id="icon-VectorL-2" viewBox="0 0 22 32"><path opacity=".5" stroke="#fff" style="stroke:var(--color1,#fff)" stroke-width="4.8" d="M19.2 28.8 6.4 16 19.2 3.2"/></symbol><symbol id="icon-VectorR-3" viewBox="0 0 22 32"><path stroke="#fff" style="stroke:var(--color1,#fff)" stroke-width="4.8" d="M3.2 3.2 16 16 3.2 28.8"/></symbol><symbol id="icon-arrowleftdown" viewBox="0 0 32 32"><path fill="#fff" style="fill:var(--color1,#fff)" opacity=".2" d="M16 32C7.163 32 0 24.837 0 16S7.163 0 16 0s16 7.163 16 16-7.163 16-16 16z"/><path stroke="#fff" style="stroke:var(--color1,#fff)" stroke-width="1.714" d="M20.571 13.714 16 18.285l-4.571-4.571"/></symbol><symbol id="icon-arrow-left" viewBox="0 0 32 32"><path d="M16 32C7.163 32 0 24.837 0 16S7.163 0 16 0s16 7.163 16 16-7.163 16-16 16z"/><path d="M20.571 13.714 16 18.285l-4.571-4.571"/></symbol><symbol id="right-arrow-svgrepo" viewBox="0 0 32 32"><path d="M24.301 14.971 9.756.426a1.455 1.455 0 0 0-2.057 2.057L21.216 16 7.699 29.517a1.455 1.455 0 0 0 2.057 2.057l14.545-14.546a1.454 1.454 0 0 0 0-2.057z"/></symbol><symbol id="icons8-instagram" viewBox="0 0 32 32"><path fill="#304ffe" style="fill:var(--color1,#304ffe)" d="M27.78 8.987c-.267.173-.647.333-.807.513-.06.06-.093.127-.08.193v.687l-.2.673-.42 1.4-.453 1.5-.44 1.48-.333 1.113c0 .173-.007.347-.02.513a6.64 6.64 0 0 1-.393 1.827c-.127.353-.28.693-.467 1.013a4.313 4.313 0 0 1-.227.373c-.267.42-.587.807-.94 1.147a5.627 5.627 0 0 1-.9.74h-.007a.807.807 0 0 1-.18.12 4.92 4.92 0 0 1-.653.367c-.153.08-.307.147-.467.207-.033.02-.073.033-.107.047-.38.18-.82.3-1.26.36-.027.007-.047.007-.073.013a8.021 8.021 0 0 1-.793.107c-.12.013-.247.02-.367.02l-.473-.027-2.28-.12c0-.007-.007 0-.007 0l-1.147-.06c-.087 0-.18 0-.267-.007a6.037 6.037 0 0 1-1.053-.127h-.007a6.816 6.816 0 0 1-1.807-.62c-.313-.16-.62-.34-.907-.547a4.775 4.775 0 0 1-.347-.28 8.665 8.665 0 0 1-.873-.847c-.04-.04-.073-.08-.107-.12-.04-.04-.08-.087-.113-.127a5.734 5.734 0 0 1-.64-.993 5.05 5.05 0 0 1-.387-.993 3.653 3.653 0 0 1-.1-.38.05.05 0 0 1-.013-.033 6.885 6.885 0 0 1-.16-.847c-.04-.22-.06-.44-.06-.667-.013-.087-.013-.18-.013-.267l1.273-1.967 1.813-2.793.513-.787.173-.273v-.687c.013-.153.02-.313.013-.46-.007-.467-.1-.92-.253-1.353a7.79 7.79 0 0 0-.567-1.293c-.253-.46-.52-.873-.74-1.247-.327-.547-.553-.993-.493-1.307a6.57 6.57 0 0 1 1.5-.173h10.667c2.787 0 5.187 1.733 6.18 4.173.107.26.2.533.267.813z"/><path fill="#4928f4" style="fill:var(--color2,#4928f4)" d="M28 10.667v.18l-6.52 3.78c0 .32-.08.613-.227.88-.207.387-.553.707-.993.98-.447.273-.993.493-1.607.653 0 0 0-.007-.007 0-2.373.613-5.613.333-7.187-.84-.44-.327-.747-.727-.88-1.187-.04-.153-.06-.32-.06-.487V9.833c.007-.1-.06-.2-.18-.3-.36-.287-1.207-.56-2.153-.833-.74-.207-1.533-.413-2.2-.613-.527-.16-.973-.32-1.24-.473a6.693 6.693 0 0 1 5.92-3.613h7.2c3.58.627 6.88 2.087 9.647 4.173.107.26.2.533.267.813.12.44.193.893.213 1.367.007.1.007.207.007.313z"/><path fill="#6200ea" style="fill:var(--color3,#6200ea)" d="M28 10.667v2.94l-.147.453-.5 1.553-.52 1.6-.273.853-.253.793-.247.753-.24.747-.127.393-.167.52c0 .507-.013.953-.047 1.333a.7.7 0 0 0-.013.12 4.35 4.35 0 0 1-.18.907.6.6 0 0 1-.033.113c-.173.48-.433.787-.82.987a1.95 1.95 0 0 1-.313.133c-.353.12-.8.18-1.347.213-.4.027-.86.033-1.38.033h-.46l-10.107-.413c-.52-.007-.967-.04-1.353-.093-.56-.087-.993-.233-1.32-.453-.467-.3-.74-.74-.9-1.353-.04-.147-.073-.3-.093-.467-.067-.387-.1-.833-.12-1.333 0-.1 0-.2-.007-.307-.007-.007 0-.007 0-.007v-.387c-.007-.193-.007-.393-.007-.6l.033-1.073.02-.767.027-.893v-.127l.093-3.28.047-1.54.04-1.513.013-.4c0-.207-.7-.327-1.48-.427-.62-.08-1.3-.153-1.707-.247.033-.153.067-.307.107-.453.12-.48.3-.933.527-1.367.12-.233.26-.467.407-.687A22.236 22.236 0 0 1 9.66 5.477a20.936 20.936 0 0 1 4.287-.44c4.907 0 9.44 1.66 13.027 4.46.347.267.687.553 1.02.853.007.1.007.207.007.313z"/><path fill="#673ab7" style="fill:var(--color4,#673ab7)" d="M28 12.247v3.027l-.367.707-.7 1.367-.373.72-.34.66-.147.287c0 .207 0 .407-.013.6 0 .287-.013.56-.033.813-.027.3-.067.573-.107.827-.1.527-.24.98-.44 1.353-.027.047-.053.093-.08.133a2.52 2.52 0 0 1-.253.34 1.98 1.98 0 0 1-.407.38 2.86 2.86 0 0 1-.8.42c-.38.14-.82.233-1.34.287-.34.033-.713.053-1.12.053l-.28.013-9.313.54c-.34 0-.66-.02-.967-.06-.033-.007-.06-.013-.093-.013a4.953 4.953 0 0 1-1.24-.36 4.06 4.06 0 0 1-1.18-.787 4.347 4.347 0 0 1-.753-.98c-.047-.087-.093-.167-.133-.26-.2-.393-.36-.833-.48-1.313-.02-.08-.04-.167-.053-.253a3.577 3.577 0 0 1-.093-.48c-.073-.427-.113-.88-.133-1.353v-.007a15.68 15.68 0 0 1-.013-.58l-.327-.78-.047-.12-.04-.1-.5-1.193-.08-.193-.48-1.153-.533-1.287h-.007l-.54-1.3-.193-.473v-1.06c0-.42.04-.833.113-1.233.033-.153.067-.307.107-.453a18.04 18.04 0 0 1 1.767-.893 19.28 19.28 0 0 1 4.413-1.36c1.147-.207 2.34-.32 3.547-.32 4.873 0 9.293 1.767 12.747 4.647a15.831 15.831 0 0 1 1.307 1.194z"/><path fill="#8e24aa" style="fill:var(--color5,#8e24aa)" d="M28 14.233v3.427l-.38.793-.72 1.5-.007.02c0 .287-.013.547-.033.78-.067.767-.253 1.253-.56 1.553-.22.227-.493.353-.833.42-.02.007-.047.007-.067.013a1.84 1.84 0 0 1-.34.033c-.413.04-.9.013-1.46-.027-.06 0-.127-.007-.193-.013-.407-.027-.84-.053-1.32-.073-.26-.007-.533-.013-.813-.013h-.013l-.68.053-1.513.107-1.98.153-2.02.147-1.047.08-1.033.073c-.18 0-.353 0-.527-.007 0 0-.007-.007-.007 0-.753-.013-1.427-.06-2.027-.173-.553-.093-1.04-.24-1.453-.46-.427-.207-.78-.5-1.067-.873-.273-.367-.473-.827-.6-1.38v-.007a7.665 7.665 0 0 1-.147-1.553l-.1-.18-.593-1.06-.087-.147-.047-.093-.62-1.1-.307-.553-.387-.687-.667-1.193-.353-.627v-2.453a16.203 16.203 0 0 1 1.82-1.033c.76-.387 1.547-.713 2.367-.98a18.2 18.2 0 0 1 2.78-.68c.967-.16 1.96-.24 2.98-.24 4.533 0 8.693 1.62 11.9 4.313.147.113.287.24.427.36.56.5 1.093 1.04 1.58 1.607.053.06.107.113.147.173z"/><path fill="#c2185b" style="fill:var(--color6,#c2185b)" d="M28 16.473v4.82a6.634 6.634 0 0 0-.653-.327 5.463 5.463 0 0 0-.487-.213 10.686 10.686 0 0 0-1.04-.394c-.12-.047-.247-.087-.373-.127-.393-.12-.827-.233-1.28-.333a12.049 12.049 0 0 0-.533-.093c-.58-.1-1.2-.16-1.847-.167-.053-.007-.113-.007-.167-.007l-1.713.013-2.34.013-4.993.04c-1.587 0-2.56.38-3.147.533 0 0-.007 0-.007.007-.62.16-.813.06-.867-1.027-.013-.3-.02-.687-.02-1.16l-.373-.287-.653-.493-.4-.307-.08-.06-1.273-.967-.347-.267-.64-.48L4 14.603v-2.267c.067-.053.127-.1.193-.14a17.517 17.517 0 0 1 6.146-2.666c.287-.06.58-.12.88-.16a16.05 16.05 0 0 1 2.727-.227c4.007 0 7.687 1.393 10.607 3.7.44.347.867.713 1.267 1.107.547.52 1.06 1.073 1.533 1.66.093.12.187.24.28.367.127.16.247.327.367.493z"/><path fill="#d81b60" style="fill:var(--color7,#d81b60)" d="M28 19.147v2.187c0 .433-.04.86-.12 1.273a6.63 6.63 0 0 1-.607 1.747 1.406 1.406 0 0 1-.5.007c-.42-.073-.913-.293-1.447-.58a.257.257 0 0 1-.073-.033 7.93 7.93 0 0 1-.513-.287c-.353-.193-.727-.407-1.1-.607-.08-.04-.16-.08-.233-.12-.427-.22-.867-.42-1.307-.573h-.007a3.585 3.585 0 0 0-.293-.093 4.25 4.25 0 0 0-1.14-.173l-.733-.213-3.247-.94h-.007l-2.867-.833c-2.507 0-4.047 1.067-4.793.66-.293-.153-.467-.54-.527-1.3a7.955 7.955 0 0 1-.027-.733l-.78-.38-.033-.013h-.007l-.56-.28-.613-.293-.047-.02-.113-.06-2.307-1.12v-2.287c.113-.1.233-.193.353-.287.127-.1.253-.193.38-.293h.007a15.434 15.434 0 0 1 2.507-1.48 14.968 14.968 0 0 1 3.273-1.12c.167-.04.34-.08.513-.107.947-.18 1.92-.273 2.913-.273a15.658 15.658 0 0 1 11.433 4.913 15.433 15.433 0 0 1 1.453 1.78c.033.047.067.093.1.133.247.36.473.727.687 1.107.14.227.26.46.38.693z"/><path fill="#f50057" style="fill:var(--color8,#f50057)" d="M27.88 22.607a6.63 6.63 0 0 1-1.32 2.854c-.24-.093-.593-.227-1.027-.373v-.007a21.07 21.07 0 0 0-1.1-.347c-.113-.033-.227-.067-.347-.1-.473-.127-.967-.24-1.447-.307a7.11 7.11 0 0 0-1.16-.107l-.307-.087h-.007l-9.687-2.787-2.64-.627h-.007l-1.527-.353v-.007l-.273-.06-.14-.033-1.113-.26-.127-.033-.947-.78-.707-.593v-2.72c.247-.24.5-.467.767-.687.08-.073.167-.14.253-.207.08-.067.167-.133.253-.2a13.55 13.55 0 0 1 1.927-1.227c.867-.467 1.787-.84 2.753-1.107.187-.06.373-.113.567-.153a14.12 14.12 0 0 1 3.427-.413 14.399 14.399 0 0 1 11.08 5.173c.44.527.84 1.08 1.193 1.667.033.047.06.087.087.133.213.353.413.72.593 1.093.167.333.313.667.447 1.013.213.533.387 1.08.533 1.64z"/><path fill="#ff1744" style="fill:var(--color9,#ff1744)" d="M26.853 25.06a6.484 6.484 0 0 1-1.266 1.393c-.313.26-.647.493-1 .693a3.375 3.375 0 0 1-.407-.127c-.44-.153-.9-.407-1.327-.673a16.034 16.034 0 0 1-1.44-1.047l-.14-.12-10.08-.893-6.633-3.213L4 20.9v-2.98c.313-.373.647-.727 1-1.067.227-.213.467-.427.713-.627.04-.033.08-.067.12-.093a.268.268 0 0 1 .087-.067c.393-.32.807-.607 1.233-.867a11.256 11.256 0 0 1 1.553-.827c.58-.26 1.187-.48 1.813-.647a12.609 12.609 0 0 1 3.427-.467c2.72 0 5.233.827 7.307 2.247a12.934 12.934 0 0 1 3.38 3.38c.3.427.567.88.813 1.347.087.173.173.347.247.52.08.167.153.333.227.5.14.347.267.693.38 1.053a12.468 12.468 0 0 1 .553 2.753z"/><path fill="#ff5722" style="fill:var(--color10,#ff5722)" d="M25.593 26.28c0 .053 0 .113-.007.173-.313.26-.647.493-1 .693-.147.08-.293.16-.447.227-.153.073-.307.14-.467.2-.227-.12-.533-.267-.86-.407-.46-.207-.96-.393-1.347-.453a1.229 1.229 0 0 0-.26-.027l-1.093-.14h-.013l-2.733-.36-.64-.08-5.04-.653c-.327 0-.673-.02-1.033-.067-.44-.04-.9-.107-1.36-.2-.453-.08-.913-.187-1.353-.3-.46-.107-.913-.233-1.333-.353-.487-.147-.94-.287-1.32-.413-.313-.1-.58-.193-.787-.267a5.83 5.83 0 0 1-.293-.893A6.256 6.256 0 0 1 4 21.333V20.22c.213-.353.447-.7.707-1.027.473-.627 1.013-1.2 1.6-1.707a.259.259 0 0 1 .067-.06l.007-.007c.207-.187.42-.353.647-.513a.677.677 0 0 1 .08-.067c.107-.08.22-.16.34-.233a11.486 11.486 0 0 1 3.133-1.493 11.68 11.68 0 0 1 3.367-.487c2.327 0 4.5.687 6.313 1.86 1.34.86 2.493 1.993 3.373 3.32.107.153.207.307.307.467.46.78.84 1.62 1.12 2.5.033.1.06.2.087.307.053.18.1.367.14.553.013.047.027.093.04.147.093.42.16.86.207 1.3v.007c.04.393.06.793.06 1.193z"/><path fill="#ff6f00" style="fill:var(--color11,#ff6f00)" d="M24.22 26.28c0 .233-.013.487-.04.74l-.04.353a6.305 6.305 0 0 1-1.387.473 5.26 5.26 0 0 1-.653.107h-.007c-.207-.127-.447-.28-.693-.453a39.272 39.272 0 0 1-1.287-.953l-.013-.013c-.393-.3-.673-.527-.673-.527l-.707.027-1.36.047-.633.027-4.7.173a6.21 6.21 0 0 1-.513 0h-.007c-.28-.007-.613-.027-.98-.06a63.772 63.772 0 0 1-1.367-.12c-.46-.053-.927-.107-1.373-.16-.493-.053-.96-.113-1.36-.167-.313-.04-.587-.073-.807-.1a6.315 6.315 0 0 1-.513-.673c-.24-.36-.447-.74-.607-1.147a5.83 5.83 0 0 1-.293-.893 9.59 9.59 0 0 1 .747-1.693c.24-.44.52-.86.827-1.26.3-.393.627-.76.98-1.093v-.007c.1-.1.2-.193.3-.28a8.35 8.35 0 0 1 .58-.487h.007c.007-.013.013-.013.02-.02.16-.127.327-.24.493-.353.987-.673 2.1-1.173 3.3-1.467.793-.193 1.627-.3 2.487-.3 1.693 0 3.293.407 4.7 1.14h.007a10.118 10.118 0 0 1 3.133 2.5c.473.547.88 1.147 1.213 1.78.233.427.433.873.6 1.327.013.04.027.073.04.107.113.333.213.68.3 1.027.06.247.107.5.147.753.013.08.027.153.033.233.067.46.1.933.1 1.413z"/><path fill="#ff9800" style="fill:var(--color12,#ff9800)" d="M22.853 26.28v.067c0 .227-.02.513-.04.82l-.06.68a5.26 5.26 0 0 1-.653.107h-.007c-.253.033-.5.047-.76.047h-1.167l-.253-.073-1.313-.4-5.753-1.727s-.553.22-1.333.48h-.007c-.3.1-.627.207-.973.313-.433.127-.893.253-1.347.353a9.563 9.563 0 0 1-1.34.22c-.127.013-.253.02-.367.02a6.791 6.791 0 0 1-1.86-1.514A6.315 6.315 0 0 1 5.107 25c.047-.3.1-.593.18-.88.2-.793.513-1.553.927-2.247.227-.393.48-.773.773-1.127a.119.119 0 0 1 .047-.053c-.007-.007 0-.007 0-.007.087-.113.18-.22.273-.32v-.007c.273-.293.553-.573.86-.833.107-.087.207-.173.32-.26.02-.02.04-.033.067-.053a8.868 8.868 0 0 1 5.393-1.84c2.293 0 4.38.86 5.96 2.273a8.929 8.929 0 0 1 1.893 2.42c.04.067.08.14.113.213.06.12.12.247.173.38.22.48.393.987.513 1.507l.04.16a8.969 8.969 0 0 1 .213 1.953z"/><path fill="#ffc107" style="fill:var(--color13,#ffc107)" d="M21.48 26.28c0 .133-.007.28-.013.433-.013.247-.033.513-.067.787-.013.167-.04.333-.067.5H17.68l-4.76-.76c-.393 0-1.247.173-2.147.34-.473.087-.953.18-1.387.24l-.153.02h-.007a6.28 6.28 0 0 1-1.347-.453 5.735 5.735 0 0 1-.4-.2 6.791 6.791 0 0 1-1.06-.727c-.007-.08-.013-.147-.013-.18 0-.173.007-.34.02-.507.027-.427.087-.84.18-1.24.147-.607.36-1.193.647-1.733.053-.113.113-.227.18-.333.027-.053.06-.1.087-.153.12-.193.253-.38.387-.567.28-.367.593-.713.927-1.027h.007a.756.756 0 0 1 .08-.073c.033-.027.06-.06.093-.08.133-.12.267-.227.407-.327 0-.007.007-.007.007-.007a7.52 7.52 0 0 1 4.52-1.493 7.5 7.5 0 0 1 3.62.92h.007a7.54 7.54 0 0 1 2.353 2.02c.247.32.467.66.653 1.02h.007l.1.2c.2.393.36.807.48 1.233h.007c.007.033.02.067.027.1.08.287.147.58.193.88l.02.187c.047.32.067.647.067.98z"/><path fill="#ffd54f" style="fill:var(--color14,#ffd54f)" d="M20.113 26.207c0 .107 0 .22-.013.327v.014c-.013.48-.08.953-.187 1.38a.151.151 0 0 1-.02.073H16.78l-2.907-.627-.053.013-2.973.613h-.18c-.427 0-.847-.04-1.253-.12l-.18-.04h-.007a6.28 6.28 0 0 1-1.347-.453c-.013-.073-.027-.147-.033-.22a5.521 5.521 0 0 1-.067-.887c0-.113 0-.227.007-.34.02-.36.073-.713.153-1.053.053-.253.127-.5.213-.733a5.926 5.926 0 0 1 .82-1.534 6.01 6.01 0 0 1 1.574-1.494 6.162 6.162 0 0 1 3.4-1.013c.247 0 .487.013.72.047h.013c.713.08 1.38.28 1.993.58h.007a6.168 6.168 0 0 1 2.674 2.534c.073.127.14.26.2.393.093.207.18.427.253.647h.007c.073.247.14.493.187.753v.007c.073.367.113.747.113 1.133z"/><path fill="#ffe082" style="fill:var(--color15,#ffe082)" d="M18.74 26.347v.02c0 .393-.047.78-.14 1.16-.033.16-.08.32-.14.473h-2.987l-1.527-.42-1.527.42h-1.753c-.427 0-.847-.04-1.253-.12-.013-.02-.02-.04-.027-.06a4.367 4.367 0 0 1-.2-.873 4.329 4.329 0 0 1-.04-.6c0-.08 0-.167.013-.247.007-.313.053-.62.133-.913.04-.2.1-.393.18-.58.027-.093.067-.18.113-.267.1-.227.22-.447.353-.66.147-.213.307-.413.487-.6.213-.24.453-.46.727-.64.467-.34 1-.593 1.58-.733a4.79 4.79 0 0 1 4.606 1.233c.033.033.073.073.107.12h.007c.093.1.18.2.267.313.247.313.453.653.613 1.027.08.173.147.353.2.54l.02.073c.093.327.153.667.167 1.02.013.1.02.207.02.313z"/><path fill="#ffecb3" style="fill:var(--color16,#ffecb3)" d="M17.373 26.347c0 .273-.033.533-.107.78-.067.267-.167.52-.293.76-.02.04-.067.113-.067.113h-5.92a.048.048 0 0 1-.013-.027 2.17 2.17 0 0 1-.2-.393 3.08 3.08 0 0 1-.24-.987c-.013-.08-.013-.167-.013-.247 0-.04 0-.087.007-.127.007-.293.047-.573.127-.833.067-.24.153-.46.267-.673 0 0 .007-.007.007-.013.08-.14.167-.28.267-.413.327-.44.76-.8 1.26-1.033h.007c.16-.08.327-.147.5-.193h.007c.307-.093.64-.14.98-.14.393 0 .773.06 1.12.187.127.033.247.087.367.147h.007c.573.273 1.06.7 1.393 1.233.067.1.127.207.18.32.027.047.053.1.073.147.153.347.247.727.273 1.127a.515.515 0 0 1 .007.107c.007.053.007.107.007.16z"/><path stroke="#fff" style="stroke:var(--color17,#fff)" stroke-linejoin="round" stroke-linecap="round" stroke-miterlimit="10" stroke-width="1.333" d="M20 7.333h-8A4.639 4.639 0 0 0 7.333 12v8c0 2.6 2.067 4.667 4.667 4.667h8c2.6 0 4.667-2.067 4.667-4.667v-8c0-2.6-2.067-4.667-4.667-4.667z"/><path fill="#fff" style="fill:var(--color17,#fff)" d="M21.333 10.667a.667.667 0 1 1-1.334 0 .667.667 0 0 1 1.334 0z"/><path stroke="#fff" style="stroke:var(--color17,#fff)" stroke-linejoin="round" stroke-linecap="round" stroke-miterlimit="10" stroke-width="1.333" d="M20 16a4 4 0 1 1-8 0 4 4 0 0 1 8 0z"/></symbol><symbol id="icons8-twitter" viewBox="0 0 32 32"><path d="m3.789 3.84 9.384 13.68-9.185 10.64h2.035l8.049-9.33 6.4 9.33h7.689l-9.804-14.291L27.008 3.84h-2.029l-7.523 8.715-5.979-8.715H3.788zm2.43 1.28h4.585L25.73 26.88h-4.585L6.219 5.12z"/></symbol><symbol id="icons8-whatsapp" viewBox="0 0 32 32"><path fill="#fff" style="fill:var(--color17,#fff)" d="m3.245 28.869 1.796-6.557a12.625 12.625 0 0 1-1.69-6.326C3.354 9.009 9.032 3.333 16.009 3.333c3.386.001 6.563 1.319 8.953 3.711s3.705 5.571 3.704 8.952c-.003 6.977-5.681 12.653-12.657 12.653-.001 0 0 0 0 0h-.005a12.646 12.646 0 0 1-6.049-1.541z"/><path fill="#fff" style="fill:var(--color17,#fff)" d="M3.245 29.202a.335.335 0 0 1-.322-.421l1.759-6.424a12.985 12.985 0 0 1-1.665-6.371C3.02 8.825 8.847 2.999 16.008 2.999c3.473.001 6.737 1.354 9.189 3.809s3.803 5.718 3.801 9.187c-.003 7.161-5.831 12.987-12.991 12.987a13.024 13.024 0 0 1-6.096-1.518L3.328 29.19a.305.305 0 0 1-.085.011z"/><path fill="#cfd8dc" style="fill:var(--color18,#cfd8dc)" d="M16.009 3.333c3.386.001 6.563 1.319 8.953 3.711s3.705 5.571 3.704 8.952c-.003 6.977-5.681 12.653-12.657 12.653h-.005a12.646 12.646 0 0 1-6.049-1.541l-6.71 1.76 1.796-6.557a12.625 12.625 0 0 1-1.69-6.326C3.354 9.008 9.032 3.332 16.009 3.332zm0 25.316zm0 0zm0-25.982c-7.344 0-13.321 5.975-13.325 13.319a13.333 13.333 0 0 0 1.641 6.415l-1.723 6.293a.666.666 0 0 0 .812.821l6.458-1.693a13.35 13.35 0 0 0 6.131 1.496c7.349 0 13.327-5.975 13.33-13.32a13.236 13.236 0 0 0-3.899-9.423 13.25 13.25 0 0 0-9.426-3.907z"/><path fill="#40c351" style="fill:var(--color19,#40c351)" d="M23.451 8.555a10.45 10.45 0 0 0-7.438-3.084c-5.803 0-10.522 4.717-10.525 10.516a10.482 10.482 0 0 0 1.609 5.597l.251.398-1.063 3.881 3.982-1.044.385.228a10.502 10.502 0 0 0 5.355 1.466h.004c5.799 0 10.518-4.718 10.52-10.517a10.452 10.452 0 0 0-3.079-7.441z"/><path fill="#fff" style="fill:var(--color17,#fff)" d="M12.845 10.697c-.237-.527-.486-.537-.712-.547-.185-.008-.395-.007-.606-.007s-.553.079-.843.396c-.29.317-1.107 1.081-1.107 2.637s1.133 3.06 1.291 3.271c.158.211 2.188 3.506 5.403 4.774 2.671 1.053 3.215.844 3.795.791s1.871-.765 2.135-1.503c.263-.739.263-1.371.185-1.503s-.29-.211-.606-.369-1.871-.923-2.161-1.029c-.29-.105-.501-.158-.712.159s-.817 1.029-1.001 1.239c-.185.211-.369.238-.685.079s-1.335-.492-2.543-1.569c-.94-.838-1.575-1.873-1.759-2.19s-.02-.487.139-.645c.142-.142.316-.369.475-.554s.211-.317.316-.527c.105-.211.053-.396-.027-.554-.078-.159-.693-1.723-.974-2.348z"/></symbol><symbol id="facebook_chat_icon" viewBox="0 0 32 32"><path fill="#1976d2" style="fill:var(--color20,#1976d2)" d="M6.827 0h18.347a6.827 6.827 0 0 1 6.827 6.827v18.347a6.827 6.827 0 0 1-6.827 6.827H6.827A6.827 6.827 0 0 1 0 25.174V6.827A6.827 6.827 0 0 1 6.827 0z"/><path fill="#fff" style="fill:var(--color17,#fff)" d="M19.672 16.467h-2.564v9.392h-3.884v-9.392h-1.847v-3.302h1.847v-2.136c0-1.527.725-3.92 3.919-3.92l2.876.012v3.204h-2.087c-.343 0-.824.171-.824.899v1.943h2.904l-.34 3.298z"/></symbol><symbol id="icon-circle-down" viewBox="0 0 32 32"><path d="M32 16c0-8.837-7.163-16-16-16S0 7.163 0 16s7.163 16 16 16 16-7.163 16-16zM3 16C3 8.82 8.82 3 16 3s13 5.82 13 13-5.82 13-13 13S3 23.18 3 16z"/><path d="m9.914 11.086-2.829 2.829 8.914 8.914 8.914-8.914-2.828-2.828-6.086 6.086z"/></symbol></defs></svg>