<svg aria-hidden="true" style="position: absolute; width: 0; height: 0; overflow: hidden;" version="1.1" xmlns="http://www.w3.org/2000/svg" xmlns:xlink="http://www.w3.org/1999/xlink" fill="none">
<defs>

<symbol id="icon-star-1" viewBox="0 0 35 32">
<path d="M17.6 2.589l3.37 10.372h10.906l-8.823 6.411 0.18 0.553 3.191 9.82-8.823-6.411-8.823 6.411 3.37-10.372-8.823-6.411h10.906l3.37-10.372z"></path>
</symbol>

<symbol id="icon-location" viewBox="0 0 32 32">
<path d="M27.636 16c0 6.427-5.21 11.636-11.636 11.636s-11.636-5.21-11.636-11.636c0-6.427 5.21-11.636 11.636-11.636s11.636 5.21 11.636 11.636z"></path>
<path d="M14.545 0h2.909v5.818h-2.909v-5.818z"></path>
<path d="M14.545 26.182h2.909v5.818h-2.909v-5.818z"></path>
<path d="M5.818 14.545v2.909h-5.818v-2.909h5.818z"></path>
<path d="M32 14.545v2.909h-5.818v-2.909h5.818z"></path>
</symbol>

<symbol id="vector-arrow-r" viewBox="0 0 22 32">
<path d="M3.2 3.2l12.8 12.8-12.8 12.8"></path>
</symbol>

<symbol id="vector-x" viewBox="0 0 32 32">
<path d="M2.667 2.667l26.667 26.667M2.667 29.333l26.667-26.667"></path>
</symbol>

<symbol id="linkedin" viewBox="0 0 32 32">
<path d="M31.992 32v-0.001h0.008v-11.736c0-5.741-1.236-10.164-7.948-10.164-3.227 0-5.392 1.771-6.276 3.449h-0.093v-2.913h-6.364v21.364h6.627v-10.579c0-2.785 0.528-5.479 3.977-5.479 3.399 0 3.449 3.179 3.449 5.657v10.401h6.62z"></path>
<path d="M0.528 10.636h6.635v21.364h-6.635v-21.364z"></path>
<path d="M3.843-0c-2.121 0-3.843 1.721-3.843 3.843s1.721 3.879 3.843 3.879c2.121 0 3.843-1.757 3.843-3.879-0.001-2.121-1.723-3.843-3.843-3.843v0z"></path>
</symbol>

<symbol id="instagram" viewBox="0 0 32 32">
<path d="M31.969 9.408c-0.075-1.7-0.35-2.869-0.744-3.882-0.406-1.075-1.031-2.038-1.85-2.838-0.8-0.813-1.769-1.444-2.832-1.844-1.019-0.394-2.182-0.669-3.882-0.744-1.713-0.081-2.257-0.1-6.601-0.1s-4.888 0.019-6.595 0.094c-1.7 0.075-2.869 0.35-3.882 0.744-1.075 0.406-2.038 1.031-2.838 1.85-0.813 0.8-1.444 1.769-1.844 2.832-0.394 1.019-0.669 2.182-0.744 3.882-0.081 1.713-0.1 2.257-0.1 6.601s0.019 4.888 0.094 6.595c0.075 1.7 0.35 2.869 0.744 3.882 0.406 1.075 1.038 2.038 1.85 2.838 0.8 0.813 1.769 1.444 2.832 1.844 1.019 0.394 2.182 0.669 3.882 0.744 1.706 0.075 2.25 0.094 6.595 0.094s4.888-0.018 6.595-0.094c1.7-0.075 2.869-0.35 3.882-0.744 2.151-0.831 3.851-2.532 4.682-4.682 0.394-1.019 0.669-2.182 0.744-3.882 0.075-1.707 0.094-2.251 0.094-6.595s-0.006-4.888-0.081-6.595zM29.087 22.473c-0.069 1.563-0.331 2.407-0.55 2.969-0.538 1.394-1.644 2.501-3.038 3.038-0.563 0.219-1.413 0.481-2.969 0.55-1.688 0.075-2.194 0.094-6.464 0.094s-4.782-0.018-6.464-0.094c-1.563-0.069-2.407-0.331-2.969-0.55-0.694-0.256-1.325-0.663-1.838-1.194-0.531-0.519-0.938-1.144-1.194-1.838-0.219-0.563-0.481-1.413-0.55-2.969-0.075-1.688-0.094-2.194-0.094-6.464s0.019-4.782 0.094-6.464c0.069-1.563 0.331-2.407 0.55-2.969 0.256-0.694 0.663-1.325 1.2-1.838 0.519-0.531 1.144-0.938 1.838-1.194 0.563-0.219 1.413-0.481 2.969-0.55 1.688-0.075 2.194-0.094 6.464-0.094 4.276 0 4.782 0.019 6.464 0.094 1.563 0.069 2.407 0.331 2.969 0.55 0.694 0.256 1.325 0.662 1.838 1.194 0.531 0.519 0.938 1.144 1.194 1.838 0.219 0.563 0.481 1.413 0.55 2.969 0.075 1.688 0.094 2.194 0.094 6.464s-0.019 4.77-0.094 6.457z"></path>
<path d="M16.059 7.782c-4.538 0-8.22 3.682-8.22 8.22s3.682 8.22 8.22 8.22c4.538 0 8.22-3.682 8.22-8.22s-3.682-8.22-8.22-8.22zM16.059 21.335c-2.944 0-5.332-2.388-5.332-5.332s2.388-5.332 5.332-5.332c2.944 0 5.332 2.388 5.332 5.332s-2.388 5.332-5.332 5.332z"></path>
<path d="M26.524 7.457c0 1.060-0.859 1.919-1.919 1.919s-1.919-0.859-1.919-1.919c0-1.060 0.859-1.919 1.919-1.919s1.919 0.859 1.919 1.919z"></path>
</symbol>

<symbol id="facebook" viewBox="0 0 32 32">
<path d="M21.329 5.313h2.921v-5.088c-0.504-0.069-2.237-0.225-4.256-0.225-4.212 0-7.097 2.649-7.097 7.519v4.481h-4.648v5.688h4.648v14.312h5.699v-14.311h4.46l0.708-5.688h-5.169v-3.919c0.001-1.644 0.444-2.769 2.735-2.769z"></path>
</symbol>

<symbol id="icon-heart" viewBox="0 0 32 32">
<path d="M23.6 2c-3.363 0-6.258 2.736-7.599 5.594-1.342-2.858-4.237-5.594-7.601-5.594-4.637 0-8.4 3.764-8.4 8.401 0 9.433 9.516 11.906 16.001 21.232 6.13-9.268 15.999-12.1 15.999-21.232 0-4.637-3.763-8.401-8.4-8.401z"></path>
</symbol>

<symbol id="icon-home3" viewBox="0 0 32 32">
<path d="M32 19l-6-6v-9h-4v5l-6-6-16 16v1h4v10h10v-6h4v6h10v-10h4z"></path>
</symbol>

<symbol id="icon-phone" viewBox="0 0 32 32">
<path d="M22 20c-2 2-2 4-4 4s-4-2-6-4-4-4-4-6 2-2 4-4-4-8-6-8-6 6-6 6c0 4 4.109 12.109 8 16s12 8 16 8c0 0 6-4 6-6s-6-8-8-6z"></path>
</symbol>

<symbol id="icon-envelop" viewBox="0 0 32 32">
<path d="M29 4h-26c-1.65 0-3 1.35-3 3v20c0 1.65 1.35 3 3 3h26c1.65 0 3-1.35 3-3v-20c0-1.65-1.35-3-3-3zM12.461 17.199l-8.461 6.59v-15.676l8.461 9.086zM5.512 8h20.976l-10.488 7.875-10.488-7.875zM12.79 17.553l3.21 3.447 3.21-3.447 6.58 8.447h-19.579l6.58-8.447zM19.539 17.199l8.461-9.086v15.676l-8.461-6.59z"></path>
</symbol>

<symbol id="icon-mail" viewBox="0 0 32 32">
<path d="M26.666 0h-21.332c-2.934 0-5.334 2.4-5.334 5.333v21.333c0 2.934 2.4 5.334 5.334 5.334h21.332c2.936 0 5.334-2.4 5.334-5.334v-21.333c0-2.934-2.398-5.333-5.334-5.333zM8 8h16c0.286 0 0.563 0.061 0.817 0.177l-8.817 10.286-8.817-10.287c0.254-0.116 0.531-0.177 0.817-0.177zM6 22v-12c0-0.042 0.002-0.084 0.004-0.125l5.864 6.842-5.8 5.8c-0.045-0.167-0.069-0.34-0.069-0.517zM24 24h-16c-0.177 0-0.35-0.024-0.517-0.069l5.691-5.691 2.826 3.297 2.826-3.297 5.691 5.691c-0.167 0.045-0.34 0.069-0.517 0.069zM26 22c0 0.177-0.024 0.35-0.069 0.517l-5.8-5.8 5.864-6.842c0.003 0.041 0.004 0.083 0.004 0.125v12z"></path>
</symbol>

<symbol id="icon-whatsapp" viewBox="0 0 32 32">
<path d="M27.281 4.65c-2.994-3-6.975-4.65-11.219-4.65-8.738 0-15.85 7.112-15.85 15.856 0 2.794 0.731 5.525 2.119 7.925l-2.25 8.219 8.406-2.206c2.319 1.262 4.925 1.931 7.575 1.931h0.006c0 0 0 0 0 0 8.738 0 15.856-7.113 15.856-15.856 0-4.238-1.65-8.219-4.644-11.219zM16.069 29.050v0c-2.369 0-4.688-0.637-6.713-1.837l-0.481-0.288-4.987 1.306 1.331-4.863-0.313-0.5c-1.325-2.094-2.019-4.519-2.019-7.012 0-7.269 5.912-13.181 13.188-13.181 3.519 0 6.831 1.375 9.319 3.862 2.488 2.494 3.856 5.8 3.856 9.325-0.006 7.275-5.919 13.188-13.181 13.188zM23.294 19.175c-0.394-0.2-2.344-1.156-2.706-1.288s-0.625-0.2-0.894 0.2c-0.262 0.394-1.025 1.288-1.256 1.556-0.231 0.262-0.462 0.3-0.856 0.1s-1.675-0.619-3.188-1.969c-1.175-1.050-1.975-2.35-2.206-2.744s-0.025-0.613 0.175-0.806c0.181-0.175 0.394-0.463 0.594-0.694s0.262-0.394 0.394-0.662c0.131-0.262 0.069-0.494-0.031-0.694s-0.894-2.15-1.219-2.944c-0.319-0.775-0.65-0.669-0.894-0.681-0.231-0.012-0.494-0.012-0.756-0.012s-0.694 0.1-1.056 0.494c-0.363 0.394-1.387 1.356-1.387 3.306s1.419 3.831 1.619 4.1c0.2 0.262 2.794 4.269 6.769 5.981 0.944 0.406 1.681 0.65 2.256 0.837 0.95 0.3 1.813 0.256 2.494 0.156 0.762-0.113 2.344-0.956 2.675-1.881s0.331-1.719 0.231-1.881c-0.094-0.175-0.356-0.275-0.756-0.475z"></path>
</symbol>

<symbol id="icon-github" viewBox="0 0 32 32">
<path d="M16 0.395c-8.836 0-16 7.163-16 16 0 7.069 4.585 13.067 10.942 15.182 0.8 0.148 1.094-0.347 1.094-0.77 0-0.381-0.015-1.642-0.022-2.979-4.452 0.968-5.391-1.888-5.391-1.888-0.728-1.849-1.776-2.341-1.776-2.341-1.452-0.993 0.11-0.973 0.11-0.973 1.606 0.113 2.452 1.649 2.452 1.649 1.427 2.446 3.743 1.739 4.656 1.33 0.143-1.034 0.558-1.74 1.016-2.14-3.554-0.404-7.29-1.777-7.29-7.907 0-1.747 0.625-3.174 1.649-4.295-0.166-0.403-0.714-2.030 0.155-4.234 0 0 1.344-0.43 4.401 1.64 1.276-0.355 2.645-0.532 4.005-0.539 1.359 0.006 2.729 0.184 4.008 0.539 3.054-2.070 4.395-1.64 4.395-1.64 0.871 2.204 0.323 3.831 0.157 4.234 1.026 1.12 1.647 2.548 1.647 4.295 0 6.145-3.743 7.498-7.306 7.895 0.574 0.497 1.085 1.47 1.085 2.963 0 2.141-0.019 3.864-0.019 4.391 0 0.426 0.288 0.925 1.099 0.768 6.354-2.118 10.933-8.113 10.933-15.18 0-8.837-7.164-16-16-16z"></path>
</symbol>

<symbol id="icon-cloudy" viewBox="0 0 32 32">
<path d="M26.888 20.96c-3.317 0-11.015-2.423-14.428-5.445-1.259-1.114-1.897-2.262-1.897-3.411 0-2.55 2.075-4.625 4.625-4.625 0.437 0 0.868 0.061 1.283 0.181 0.626-1.821 2.352-3.114 4.374-3.114 1.671 0 3.199 0.909 4.013 2.325 0.131-0.011 0.262-0.017 0.393-0.017 2.55 0 4.625 2.075 4.625 4.625 0 0.3-0.028 0.596-0.085 0.886 1.349 0.831 2.21 2.324 2.21 3.944 0 1.215-0.489 2.35-1.377 3.194-0.81 0.77-1.923 1.276-3.134 1.424-0.179 0.022-0.38 0.033-0.601 0.033z"></path>
<path d="M29.79 12.366c0.056-0.29 0.085-0.586 0.085-0.886 0-2.55-2.075-4.625-4.625-4.625-0.131 0-0.263 0.006-0.393 0.017-0.743-1.292-2.079-2.161-3.576-2.304v15.323c2.204 0.673 4.264 1.070 5.607 1.070 0.22 0 0.421-0.011 0.601-0.033 1.211-0.148 2.324-0.654 3.134-1.424 0.888-0.845 1.377-1.979 1.377-3.194 0-1.619-0.861-3.113-2.21-3.944z"></path>
<path d="M13.321 27.454c-1.068 0-2.113-0.369-2.943-1.039-0.429-0.346-0.792-0.766-1.074-1.233-0.608 0.371-1.315 0.576-2.042 0.576-1.747 0-3.251-1.162-3.746-2.77-0.806-0.083-1.575-0.416-2.193-0.961-0.841-0.743-1.323-1.813-1.323-2.936 0-2.029 1.55-3.702 3.527-3.898 0.203-0.641 0.57-1.222 1.073-1.688 0.726-0.673 1.671-1.043 2.662-1.043 0.72 0 1.421 0.202 2.026 0.567 0.281-0.473 0.645-0.898 1.077-1.25 0.832-0.677 1.882-1.050 2.956-1.050s2.124 0.373 2.956 1.050c0.432 0.351 0.796 0.776 1.077 1.25 0.605-0.365 1.305-0.567 2.026-0.567 0.99 0 1.936 0.371 2.662 1.043 0.503 0.466 0.87 1.048 1.073 1.689 0.81 0.082 1.582 0.414 2.203 0.961 0.842 0.743 1.325 1.813 1.325 2.937s-0.482 2.193-1.324 2.936c-0.618 0.546-1.386 0.878-2.193 0.961-0.494 1.608-1.999 2.77-3.746 2.77-0.727 0-1.433-0.205-2.042-0.576-0.282 0.468-0.645 0.887-1.074 1.233-0.83 0.67-1.875 1.039-2.943 1.039z"></path>
<path d="M25.317 16.155c-0.62-0.547-1.393-0.88-2.203-0.961-0.203-0.641-0.57-1.223-1.073-1.689-0.726-0.673-1.671-1.043-2.662-1.043-0.72 0-1.421 0.202-2.026 0.567-0.281-0.473-0.645-0.898-1.077-1.25-0.832-0.677-1.882-1.050-2.956-1.050v16.725c1.068 0 2.113-0.369 2.943-1.039 0.429-0.346 0.792-0.766 1.074-1.233 0.608 0.371 1.315 0.576 2.042 0.576 1.747 0 3.251-1.162 3.746-2.77 0.806-0.083 1.575-0.416 2.193-0.961 0.841-0.743 1.324-1.813 1.324-2.936s-0.483-2.194-1.325-2.937z"></path>
</symbol>

<symbol id="icon-sun" viewBox="0 0 32 32">
<path d="M16 24.688c-4.79 0-8.688-3.897-8.688-8.688s3.897-8.688 8.688-8.688c4.79 0 8.688 3.897 8.688 8.688s-3.897 8.688-8.688 8.688z"></path>
<path d="M16 5.103c-0.518 0-0.938-0.42-0.938-0.938v-3.228c0-0.518 0.42-0.938 0.938-0.938s0.938 0.42 0.938 0.938v3.228c0 0.518-0.42 0.938-0.938 0.938z"></path>
<path d="M31.063 16.938h-3.228c-0.518 0-0.938-0.42-0.938-0.938s0.42-0.938 0.938-0.938h3.228c0.518 0 0.938 0.42 0.938 0.938s-0.42 0.938-0.938 0.938z"></path>
<path d="M16 32c-0.518 0-0.938-0.42-0.938-0.938v-3.228c0-0.518 0.42-0.938 0.938-0.938s0.938 0.42 0.938 0.938v3.228c0 0.518-0.42 0.938-0.938 0.938z"></path>
<path d="M4.165 16.938h-3.228c-0.518 0-0.938-0.42-0.938-0.938s0.42-0.938 0.938-0.938h3.228c0.518 0 0.938 0.42 0.938 0.938s-0.42 0.938-0.938 0.938z"></path>
<path d="M24.369 8.569c-0.24 0-0.48-0.091-0.663-0.275-0.366-0.366-0.366-0.96 0-1.326l2.282-2.282c0.366-0.366 0.96-0.366 1.326 0s0.366 0.96 0 1.326l-2.282 2.282c-0.183 0.183-0.423 0.275-0.663 0.275z"></path>
<path d="M26.651 27.588c-0.24 0-0.48-0.092-0.663-0.275l-2.282-2.282c-0.366-0.366-0.366-0.96 0-1.326s0.96-0.366 1.326 0l2.282 2.282c0.366 0.366 0.366 0.96 0 1.326-0.183 0.183-0.423 0.275-0.663 0.275z"></path>
<path d="M5.349 27.588c-0.24 0-0.48-0.092-0.663-0.275-0.366-0.366-0.366-0.96 0-1.326l2.282-2.282c0.366-0.366 0.96-0.366 1.326 0s0.366 0.96 0 1.326l-2.282 2.282c-0.183 0.183-0.423 0.275-0.663 0.275z"></path>
<path d="M7.631 8.569c-0.24 0-0.48-0.091-0.663-0.275l-2.282-2.282c-0.366-0.366-0.366-0.96 0-1.326s0.96-0.366 1.326 0l2.282 2.282c0.366 0.366 0.366 0.96 0 1.326-0.183 0.183-0.423 0.275-0.663 0.275z"></path>
<path d="M20.541 6.009c-0.12 0-0.242-0.023-0.359-0.072-0.478-0.199-0.705-0.747-0.506-1.226l1.239-2.981c0.199-0.478 0.748-0.705 1.226-0.506s0.705 0.747 0.506 1.226l-1.239 2.981c-0.15 0.36-0.499 0.578-0.866 0.578z"></path>
<path d="M29.909 22.718c-0.12 0-0.242-0.023-0.36-0.072l-2.98-1.239c-0.478-0.199-0.705-0.747-0.506-1.226s0.747-0.705 1.226-0.506l2.981 1.239c0.478 0.199 0.705 0.747 0.506 1.225-0.15 0.36-0.499 0.578-0.866 0.578z"></path>
<path d="M10.219 30.847c-0.12 0-0.242-0.023-0.36-0.072-0.478-0.199-0.705-0.747-0.506-1.225l1.239-2.981c0.199-0.478 0.747-0.705 1.226-0.506s0.705 0.747 0.506 1.226l-1.239 2.98c-0.15 0.36-0.499 0.578-0.866 0.578z"></path>
<path d="M5.071 12.396c-0.12 0-0.242-0.023-0.359-0.072l-2.981-1.239c-0.478-0.199-0.705-0.747-0.506-1.226s0.747-0.704 1.226-0.506l2.981 1.239c0.478 0.199 0.705 0.747 0.506 1.226-0.15 0.361-0.499 0.578-0.866 0.578z"></path>
<path d="M26.94 12.421c-0.368 0-0.718-0.219-0.867-0.58-0.198-0.479 0.030-1.027 0.509-1.224l2.983-1.232c0.478-0.197 1.027 0.030 1.224 0.509s-0.030 1.027-0.509 1.224l-2.983 1.232c-0.117 0.048-0.238 0.071-0.357 0.071z"></path>
<path d="M21.748 30.861c-0.368 0-0.718-0.218-0.867-0.58l-1.232-2.983c-0.198-0.479 0.030-1.027 0.509-1.224s1.027 0.030 1.224 0.509l1.232 2.983c0.198 0.479-0.030 1.027-0.509 1.224-0.117 0.048-0.238 0.071-0.357 0.071z"></path>
<path d="M2.078 22.685c-0.368 0-0.718-0.218-0.867-0.58-0.198-0.479 0.030-1.027 0.509-1.224l2.983-1.232c0.479-0.198 1.027 0.030 1.224 0.509s-0.030 1.027-0.509 1.224l-2.983 1.232c-0.117 0.048-0.238 0.071-0.357 0.071z"></path>
<path d="M11.484 5.999c-0.368 0-0.718-0.218-0.867-0.58l-1.232-2.983c-0.198-0.479 0.030-1.027 0.509-1.224s1.027 0.030 1.224 0.509l1.232 2.983c0.198 0.479-0.030 1.027-0.509 1.224-0.117 0.048-0.238 0.071-0.357 0.071z"></path>
<path d="M16 0v5.103c0.518 0 0.938-0.42 0.938-0.938v-3.228c0-0.518-0.42-0.938-0.938-0.938z"></path>
<path d="M16 7.313v17.375c4.79 0 8.688-3.897 8.688-8.688s-3.897-8.688-8.688-8.688z"></path>
<path d="M16 26.897v5.103c0.518 0 0.938-0.42 0.938-0.938v-3.228c0-0.518-0.42-0.938-0.938-0.938z"></path>
</symbol>

<symbol id="icon-wind" viewBox="0 0 32 32">
<path d="M25.316 2.643c-1.516 0-3.002 0.523-4.185 1.472-0.404 0.324-0.468 0.914-0.144 1.318s0.914 0.468 1.318 0.144c0.851-0.683 1.92-1.059 3.011-1.059 2.652 0 4.809 2.157 4.809 4.809s-2.157 4.809-4.809 4.809h-17.628c-0.518 0-0.938 0.42-0.938 0.938s0.42 0.938 0.938 0.938h17.628c3.686 0 6.684-2.999 6.684-6.684s-2.999-6.684-6.684-6.684z"></path>
<path d="M5.891 12.268h10.015c0.518 0 0.937-0.42 0.937-0.938s-0.42-0.938-0.937-0.938h-10.015c-0.518 0-0.938 0.42-0.938 0.938s0.42 0.938 0.938 0.938z"></path>
<path d="M15.643 17.893h-14.706c-0.518 0-0.938 0.42-0.938 0.938s0.42 0.937 0.938 0.937h14.706c2.126 0 3.857 1.73 3.857 3.857s-1.73 3.857-3.857 3.857c-0.875 0-1.732-0.302-2.414-0.849-0.404-0.324-0.994-0.26-1.318 0.144s-0.26 0.994 0.144 1.318c1.014 0.814 2.288 1.262 3.588 1.262 3.16 0 5.732-2.571 5.732-5.732s-2.571-5.732-5.732-5.732z"></path>
<path d="M0.938 12.268h1.265c0.518 0 0.938-0.42 0.938-0.938s-0.42-0.938-0.938-0.938h-1.265c-0.518 0-0.938 0.42-0.938 0.938s0.42 0.938 0.938 0.938z"></path>
<path d="M12.25 22.563c0-0.518-0.42-0.938-0.938-0.938h-5.625c-0.518 0-0.938 0.42-0.938 0.938s0.42 0.937 0.938 0.937h5.625c0.518 0 0.938-0.42 0.938-0.937z"></path>
</symbol>

<symbol id="icon-humidity" viewBox="0 0 32 32">
<path  d="M28.62 9.399c-0.597-1.021-1.234-1.986-1.796-2.718-0.828-1.079-1.317-1.461-1.868-1.461-0.523 0-0.948 0.366-1.426 0.916-0.352 0.405-0.771 0.966-1.212 1.624-0.632 0.942-1.24 1.969-1.759 2.965-0.556-1.066-1.076-1.985-1.461-2.643-1.203-2.059-2.486-4.001-3.613-5.47-1.848-2.409-2.542-2.61-3.048-2.61s-1.201 0.202-3.049 2.611c-1.127 1.469-2.41 3.411-3.612 5.47-1.446 2.474-4.808 8.639-4.808 12.451 0 6.324 5.145 11.469 11.469 11.469 5.934 0 10.829-4.529 11.411-10.312 0.364 0.067 0.734 0.102 1.108 0.102 3.35 0 6.075-2.725 6.075-6.075 0-1.906-1.511-4.776-2.411-6.316zM12.437 30.125c-5.29 0-9.594-4.304-9.594-9.594 0-2.233 1.6-6.358 4.279-11.034 2.392-4.173 4.524-6.857 5.315-7.519 0.791 0.662 2.923 3.345 5.315 7.519 2.679 4.676 4.279 8.801 4.279 11.034 0 5.29-4.304 9.594-9.594 9.594zM24.956 19.915c-0.371 0-0.736-0.049-1.090-0.143-0.207-2.066-1.185-4.634-2.256-6.925 1.043-2.328 2.589-4.622 3.345-5.498 0.477 0.55 1.322 1.709 2.262 3.37 1.214 2.147 1.939 4.014 1.939 4.995 0 2.316-1.884 4.2-4.2 4.2z"></path>
<path d="M15.011 16.073c-0.448-0.259-1.022-0.105-1.281 0.343l-4.21 7.293c-0.259 0.448-0.105 1.022 0.343 1.281 0.148 0.085 0.309 0.126 0.468 0.126 0.324 0 0.639-0.168 0.813-0.469l4.21-7.293c0.259-0.448 0.105-1.022-0.343-1.281z"></path>
<path d="M10.094 17.937c0-0.516-0.421-0.937-0.938-0.937s-0.938 0.421-0.938 0.937c0 0.516 0.421 0.938 0.938 0.938s0.938-0.421 0.938-0.938z"></path>
<path d="M15.406 22.312c-0.516 0-0.938 0.421-0.938 0.937s0.421 0.938 0.938 0.938c0.516 0 0.937-0.421 0.937-0.938s-0.421-0.937-0.937-0.937z"></path>
</symbol>

<symbol id="icon-barometer" viewBox="0 0 32 32">
<path d="M18.489 4.12c0.206-0.391 0.324-0.836 0.324-1.308 0-1.551-1.262-2.813-2.812-2.813s-2.812 1.262-2.812 2.813c0 0.472 0.117 0.917 0.324 1.308-6.564 1.178-11.561 6.931-11.561 13.829 0 7.747 6.303 14.050 14.050 14.050s14.050-6.303 14.050-14.050c0-6.898-4.997-12.651-11.561-13.829zM16 1.875c0.517 0 0.938 0.421 0.938 0.938s-0.421 0.938-0.938 0.938c-0.517 0-0.937-0.421-0.937-0.938s0.421-0.938 0.937-0.938zM16 30.125c-6.713 0-12.175-5.462-12.175-12.175s5.462-12.175 12.175-12.175c6.713 0 12.175 5.462 12.175 12.175s-5.462 12.175-12.175 12.175z"></path>
<path d="M23.332 10.69c-0.013-0.015-0.026-0.030-0.040-0.044s-0.031-0.028-0.047-0.042c-1.866-1.84-4.426-2.978-7.245-2.978-2.832 0-5.4 1.146-7.267 2.998-0.008 0.008-0.017 0.014-0.025 0.022-0.007 0.007-0.012 0.014-0.019 0.021-1.862 1.869-3.014 4.444-3.014 7.284 0 0.518 0.42 0.937 0.938 0.937h1.063c0.518 0 0.938-0.42 0.938-0.937s-0.42-0.938-0.938-0.938h-0.073c0.181-1.631 0.828-3.124 1.805-4.342l0.052 0.052c0.183 0.183 0.423 0.275 0.663 0.275s0.48-0.091 0.663-0.275c0.366-0.366 0.366-0.96 0-1.326l-0.050-0.050c1.215-0.971 2.703-1.614 4.328-1.794v0.073c0 0.518 0.42 0.938 0.937 0.938s0.938-0.42 0.938-0.938v-0.073c1.625 0.18 3.112 0.824 4.327 1.795l-0.050 0.050c-0.366 0.366-0.366 0.96 0 1.326 0.183 0.183 0.423 0.275 0.663 0.275s0.48-0.091 0.663-0.275l0.051-0.051c0.975 1.214 1.621 2.703 1.804 4.329h-0.084c-0.518 0-0.938 0.42-0.938 0.937s0.42 0.938 0.938 0.938c0 0 1.076-0 1.076-0 0.518-0.001 0.937-0.421 0.936-0.939-0.004-2.822-1.147-5.383-2.993-7.246z"></path>
<path d="M20.251 13.698c-0.366-0.366-0.96-0.366-1.326 0l-3.915 3.915c-0.433-0.207-0.917-0.303-1.407-0.268-0.517 0.036-0.906 0.484-0.87 1s0.484 0.906 1.001 0.87c0.271-0.019 0.536 0.080 0.728 0.272 0.189 0.189 0.289 0.45 0.273 0.717-0.030 0.517 0.365 0.96 0.882 0.99 0.018 0.001 0.037 0.002 0.055 0.002 0.493-0 0.906-0.385 0.935-0.883 0.028-0.478-0.069-0.95-0.271-1.374l3.915-3.915c0.366-0.366 0.366-0.96 0-1.326z"></path>
<path d="M21.375 24.688h-10.75c-0.518 0-0.938 0.42-0.938 0.937s0.42 0.938 0.938 0.938h10.75c0.518 0 0.937-0.42 0.937-0.938s-0.42-0.937-0.937-0.937z"></path>
</symbol>

<symbol id="icon-snow" viewBox="0 0 32 32">
<path d="M19.531 28.438c0-0.518-0.42-0.938-0.938-0.938h-0.33l0.234-0.234c0.366-0.366 0.366-0.96 0-1.326s-0.96-0.366-1.326 0l-0.234 0.234v-0.362c0-0.518-0.42-0.937-0.938-0.937s-0.938 0.42-0.938 0.937v0.362l-0.256-0.256c-0.366-0.366-0.96-0.366-1.326 0s-0.366 0.96 0 1.326l0.256 0.256h-0.33c-0.518 0-0.938 0.42-0.938 0.938s0.42 0.938 0.938 0.938h0.33l-0.234 0.234c-0.366 0.366-0.366 0.96 0 1.326 0.183 0.183 0.423 0.275 0.663 0.275s0.48-0.092 0.663-0.275l0.234-0.234v0.362c0 0.518 0.42 0.938 0.938 0.938s0.938-0.42 0.938-0.938v-0.362l0.256 0.256c0.183 0.183 0.423 0.275 0.663 0.275s0.48-0.092 0.663-0.275c0.366-0.366 0.366-0.96 0-1.326l-0.256-0.256h0.33c0.518 0 0.938-0.42 0.938-0.938z"></path>
<path d="M7.063 22.5c0-0.518-0.42-0.938-0.938-0.938h-0.33l0.234-0.234c0.366-0.366 0.366-0.96 0-1.326s-0.96-0.366-1.326 0l-0.234 0.234v-0.362c0-0.518-0.42-0.938-0.938-0.938s-0.938 0.42-0.938 0.938v0.362l-0.256-0.256c-0.366-0.366-0.96-0.366-1.326 0s-0.366 0.96 0 1.326l0.256 0.256h-0.331c-0.518 0-0.938 0.42-0.938 0.938s0.42 0.938 0.938 0.938h0.33l-0.234 0.234c-0.366 0.366-0.366 0.96 0 1.326 0.183 0.183 0.423 0.275 0.663 0.275s0.48-0.091 0.663-0.275l0.234-0.234v0.362c0 0.518 0.42 0.938 0.938 0.938s0.938-0.42 0.938-0.938v-0.362l0.256 0.256c0.183 0.183 0.423 0.275 0.663 0.275s0.48-0.092 0.663-0.275c0.366-0.366 0.366-0.96 0-1.326l-0.256-0.256h0.33c0.518 0 0.938-0.42 0.938-0.938z"></path>
<path d="M32 22.5c0-0.518-0.42-0.938-0.938-0.938h-0.33l0.234-0.234c0.366-0.366 0.366-0.96 0-1.326s-0.96-0.366-1.326 0l-0.234 0.234v-0.362c0-0.518-0.42-0.938-0.938-0.938s-0.938 0.42-0.938 0.938v0.362l-0.256-0.256c-0.366-0.366-0.96-0.366-1.326 0s-0.366 0.96 0 1.326l0.256 0.256h-0.33c-0.518 0-0.938 0.42-0.938 0.938s0.42 0.938 0.938 0.938h0.33l-0.234 0.234c-0.366 0.366-0.366 0.96 0 1.326 0.183 0.183 0.423 0.275 0.663 0.275s0.48-0.091 0.663-0.275l0.234-0.234v0.362c0 0.518 0.42 0.938 0.938 0.938s0.938-0.42 0.938-0.938v-0.362l0.256 0.256c0.183 0.183 0.423 0.275 0.663 0.275s0.48-0.092 0.663-0.275c0.366-0.366 0.366-0.96 0-1.326l-0.256-0.256h0.33c0.518 0 0.938-0.42 0.938-0.938z"></path>
<path d="M10.781 23.375c0.516 0 0.938-0.421 0.938-0.938s-0.421-0.938-0.938-0.938-0.938 0.421-0.938 0.938c0 0.516 0.421 0.938 0.938 0.938z"></path>
<path d="M21.219 23.375c0.516 0 0.938-0.421 0.938-0.938s-0.421-0.938-0.938-0.938-0.938 0.421-0.938 0.938c0 0.516 0.421 0.938 0.938 0.938z"></path>
<path d="M5.688 32c0.516 0 0.938-0.421 0.938-0.938s-0.421-0.938-0.938-0.938c-0.516 0-0.938 0.421-0.938 0.938s0.421 0.938 0.938 0.938z"></path>
<path d="M26.313 32c0.516 0 0.938-0.421 0.938-0.938s-0.421-0.938-0.938-0.938c-0.516 0-0.938 0.421-0.938 0.938s0.421 0.938 0.938 0.938z"></path>
<path d="M16 19.938c-1.253 0-2.479-0.433-3.452-1.218-0.558-0.45-1.021-1.006-1.364-1.628-0.746 0.503-1.635 0.784-2.553 0.784-2.081 0-3.867-1.416-4.4-3.356-0.988-0.073-1.935-0.466-2.689-1.131-0.98-0.865-1.541-2.111-1.541-3.419 0-2.408 1.875-4.386 4.242-4.551 0.227-0.797 0.669-1.521 1.288-2.095 0.846-0.783 1.947-1.215 3.1-1.215 0.91 0 1.792 0.276 2.535 0.772 0.342-0.629 0.806-1.191 1.367-1.648 0.976-0.794 2.208-1.231 3.468-1.231s2.492 0.437 3.468 1.231c0.561 0.456 1.025 1.019 1.367 1.648 0.743-0.496 1.625-0.772 2.535-0.772 1.153 0 2.254 0.431 3.1 1.215 0.62 0.574 1.062 1.298 1.288 2.096 0.992 0.070 1.943 0.463 2.699 1.131 0.98 0.865 1.543 2.112 1.543 3.42s-0.562 2.553-1.541 3.419c-0.754 0.666-1.701 1.059-2.689 1.131-0.533 1.94-2.319 3.356-4.4 3.356-0.917 0-1.806-0.28-2.553-0.784-0.343 0.622-0.806 1.177-1.364 1.628-0.973 0.786-2.199 1.218-3.452 1.218z"></path>
<path d="M30.457 6.549c-0.757-0.668-1.708-1.061-2.699-1.131-0.227-0.797-0.669-1.522-1.288-2.096-0.846-0.783-1.947-1.215-3.1-1.215-0.91 0-1.792 0.276-2.535 0.772-0.342-0.629-0.805-1.191-1.366-1.648-0.976-0.794-2.208-1.231-3.468-1.231v19.937c1.253 0 2.479-0.433 3.452-1.218 0.558-0.45 1.021-1.006 1.365-1.628 0.746 0.503 1.635 0.784 2.553 0.784 2.081 0 3.867-1.416 4.4-3.356 0.988-0.073 1.935-0.466 2.689-1.131 0.979-0.865 1.541-2.111 1.541-3.419s-0.562-2.555-1.543-3.42z"></path>
<path d="M19.531 28.438c0-0.518-0.42-0.938-0.938-0.938h-0.33l0.234-0.234c0.366-0.366 0.366-0.96 0-1.326s-0.96-0.366-1.326 0l-0.234 0.234v-0.362c0-0.518-0.42-0.937-0.938-0.937v7.125c0.518 0 0.938-0.42 0.938-0.938v-0.362l0.256 0.256c0.183 0.183 0.423 0.275 0.663 0.275s0.48-0.092 0.663-0.275c0.366-0.366 0.366-0.96 0-1.326l-0.256-0.256h0.33c0.518 0 0.938-0.42 0.938-0.937z"></path>
</symbol>

<symbol id="icon-weather" viewBox="0 0 32 32">
<path d="M16 25.375c-5.169 0-9.375-4.206-9.375-9.375s4.206-9.375 9.375-9.375c0.518 0 0.938 0.42 0.938 0.938v16.875c0 0.518-0.42 0.938-0.938 0.938z"></path>
<path d="M31.063 15.063h-1.457l0.714-1.237c0.259-0.448 0.105-1.022-0.343-1.281s-1.022-0.105-1.281 0.343l-1.256 2.175h-9.177l6.489-6.489 2.425 0.65c0.081 0.022 0.163 0.032 0.243 0.032 0.414 0 0.793-0.276 0.905-0.695 0.134-0.5-0.163-1.014-0.663-1.148l-1.38-0.37 0.942-0.942c0.366-0.366 0.366-0.96 0-1.326s-0.96-0.366-1.326 0l-0.942 0.942-0.37-1.38c-0.134-0.5-0.648-0.796-1.148-0.663s-0.797 0.648-0.663 1.148l0.65 2.425-6.489 6.489v-9.177l2.175-1.256c0.448-0.259 0.602-0.832 0.343-1.281s-0.832-0.602-1.281-0.343l-1.237 0.714v-1.457c0-0.518-0.42-0.938-0.938-0.938s-0.938 0.42-0.938 0.938v30.125c0 0.518 0.42 0.937 0.938 0.937s0.938-0.42 0.938-0.938v-1.457l1.237 0.714c0.148 0.085 0.309 0.126 0.468 0.126 0.324 0 0.639-0.168 0.813-0.469 0.259-0.448 0.105-1.022-0.343-1.281l-2.175-1.256v-9.177l6.489 6.489-0.65 2.425c-0.134 0.5 0.163 1.014 0.663 1.148 0.081 0.022 0.163 0.032 0.243 0.032 0.414 0 0.793-0.276 0.905-0.695l0.37-1.38 0.942 0.942c0.183 0.183 0.423 0.275 0.663 0.275s0.48-0.092 0.663-0.275c0.366-0.366 0.366-0.96 0-1.326l-0.942-0.942 1.38-0.37c0.5-0.134 0.797-0.648 0.663-1.148s-0.648-0.797-1.148-0.663l-2.425 0.65-6.489-6.489h9.177l1.256 2.175c0.174 0.301 0.489 0.469 0.813 0.469 0.159 0 0.32-0.041 0.468-0.126 0.448-0.259 0.602-0.832 0.343-1.281l-0.714-1.237h1.457c0.518 0 0.938-0.42 0.938-0.937s-0.42-0.938-0.938-0.938z"></path>
<path d="M3.941 16.938h-3.003c-0.518 0-0.938-0.42-0.938-0.938s0.42-0.938 0.938-0.938h3.003c0.518 0 0.938 0.42 0.938 0.938s-0.42 0.938-0.938 0.938z"></path>
<path  d="M7.473 8.41c-0.24 0-0.48-0.091-0.663-0.275l-2.124-2.124c-0.366-0.366-0.366-0.96 0-1.326s0.96-0.366 1.326 0l2.124 2.124c0.366 0.366 0.366 0.96 0 1.326-0.183 0.183-0.423 0.275-0.663 0.275z"></path>
<path d="M5.349 27.588c-0.24 0-0.48-0.092-0.663-0.275-0.366-0.366-0.366-0.96 0-1.326l2.124-2.124c0.366-0.366 0.96-0.366 1.326 0s0.366 0.96 0 1.326l-2.124 2.124c-0.183 0.183-0.423 0.275-0.663 0.275z"></path>
<path d="M11.481 5.758c-0.371 0-0.722-0.221-0.869-0.586l-1.126-2.784c-0.194-0.48 0.038-1.026 0.518-1.22s1.027 0.038 1.221 0.518l1.126 2.784c0.194 0.48-0.038 1.027-0.518 1.22-0.115 0.047-0.234 0.069-0.351 0.069z"></path>
<path d="M2.036 22.583c-0.371 0-0.722-0.221-0.869-0.586-0.194-0.48 0.038-1.026 0.518-1.22l2.784-1.126c0.48-0.194 1.027 0.038 1.22 0.518s-0.038 1.026-0.518 1.22l-2.784 1.126c-0.115 0.047-0.234 0.069-0.351 0.069z"></path>
<path d="M10.288 30.875c-0.118 0-0.239-0.023-0.355-0.070-0.479-0.196-0.708-0.744-0.512-1.223l1.139-2.779c0.196-0.479 0.744-0.708 1.223-0.512s0.708 0.744 0.512 1.223l-1.139 2.779c-0.149 0.363-0.499 0.582-0.868 0.582z"></path>
<path d="M4.841 12.365c-0.118 0-0.239-0.023-0.355-0.070l-2.779-1.139c-0.479-0.196-0.708-0.744-0.512-1.223s0.744-0.708 1.223-0.512l2.779 1.139c0.479 0.196 0.708 0.744 0.512 1.223-0.149 0.363-0.499 0.582-0.868 0.582z"></path>
<path d="M31.063 15.063h-1.457l0.714-1.237c0.259-0.448 0.105-1.022-0.343-1.281s-1.022-0.105-1.281 0.343l-1.256 2.175h-9.177l6.489-6.489 2.425 0.65c0.081 0.022 0.163 0.032 0.243 0.032 0.414 0 0.793-0.276 0.905-0.695 0.134-0.5-0.163-1.014-0.663-1.148l-1.38-0.37 0.942-0.942c0.366-0.366 0.366-0.96 0-1.326s-0.96-0.366-1.326 0l-0.942 0.942-0.37-1.38c-0.134-0.5-0.648-0.796-1.148-0.663s-0.797 0.648-0.663 1.148l0.65 2.425-6.489 6.489v-9.177l2.175-1.256c0.448-0.259 0.602-0.832 0.343-1.281s-0.832-0.602-1.281-0.343l-1.237 0.714v-1.457c0-0.518-0.42-0.938-0.938-0.938v32c0.518 0 0.938-0.42 0.938-0.938v-1.457l1.237 0.714c0.148 0.085 0.309 0.126 0.468 0.126 0.324 0 0.639-0.168 0.813-0.469 0.259-0.448 0.105-1.022-0.343-1.281l-2.175-1.256v-9.177l6.489 6.489-0.65 2.425c-0.134 0.5 0.163 1.014 0.663 1.148 0.081 0.022 0.163 0.032 0.243 0.032 0.414 0 0.793-0.276 0.905-0.695l0.37-1.38 0.942 0.942c0.183 0.183 0.423 0.275 0.663 0.275s0.48-0.092 0.663-0.275c0.366-0.366 0.366-0.96 0-1.326l-0.942-0.942 1.38-0.37c0.5-0.134 0.797-0.648 0.663-1.148s-0.648-0.797-1.148-0.663l-2.425 0.65-6.489-6.489h9.177l1.256 2.175c0.174 0.301 0.489 0.469 0.813 0.469 0.159 0 0.32-0.041 0.468-0.126 0.448-0.259 0.602-0.832 0.343-1.281l-0.714-1.237h1.457c0.518 0 0.938-0.42 0.938-0.937s-0.42-0.938-0.938-0.938z"></path>
</symbol>

<symbol id="icon-sunrise" viewBox="0 0 32 32">
<path d="M16 5.103c0.518 0 0.937-0.42 0.937-0.938v-3.228c0-0.518-0.42-0.938-0.937-0.938s-0.938 0.42-0.938 0.938v3.228c0 0.518 0.42 0.938 0.938 0.938z"></path>
<path d="M31.063 15.063h-3.228c-0.518 0-0.937 0.42-0.937 0.938s0.42 0.937 0.937 0.937h3.228c0.518 0 0.937-0.42 0.937-0.937s-0.42-0.938-0.937-0.938z"></path>
<path d="M5.103 16c0-0.518-0.42-0.938-0.938-0.938h-3.228c-0.518 0-0.938 0.42-0.938 0.938s0.42 0.937 0.938 0.937h3.228c0.518 0 0.938-0.42 0.938-0.937z"></path>
<path d="M24.368 8.569c0.24 0 0.48-0.092 0.663-0.275l2.282-2.282c0.366-0.366 0.366-0.96 0-1.326s-0.96-0.366-1.326 0l-2.282 2.282c-0.366 0.366-0.366 0.96 0 1.326 0.183 0.183 0.423 0.275 0.663 0.275z"></path>
<path d="M25.031 23.705c-0.366-0.366-0.96-0.366-1.326 0s-0.366 0.96 0 1.326l2.282 2.282c0.183 0.183 0.423 0.275 0.663 0.275s0.48-0.092 0.663-0.275c0.366-0.366 0.366-0.96 0-1.326l-2.282-2.282z"></path>
<path d="M6.969 23.705l-2.282 2.282c-0.366 0.366-0.366 0.96 0 1.326 0.183 0.183 0.423 0.275 0.663 0.275s0.48-0.092 0.663-0.275l2.282-2.282c0.366-0.366 0.366-0.96 0-1.326s-0.96-0.366-1.326 0z"></path>
<path d="M6.969 8.294c0.183 0.183 0.423 0.275 0.663 0.275s0.48-0.092 0.663-0.275c0.366-0.366 0.366-0.96 0-1.326l-2.282-2.282c-0.366-0.366-0.96-0.366-1.326 0s-0.366 0.96 0 1.326l2.282 2.282z"></path>
<path d="M20.182 5.937c0.118 0.049 0.24 0.072 0.36 0.072 0.367 0 0.716-0.217 0.866-0.578l1.239-2.981c0.199-0.478-0.028-1.027-0.506-1.226s-1.027 0.028-1.225 0.506l-1.239 2.981c-0.199 0.478 0.028 1.027 0.506 1.225z"></path>
<path d="M30.269 20.915l-2.98-1.239c-0.478-0.199-1.027 0.028-1.225 0.506s0.028 1.027 0.506 1.225l2.98 1.239c0.118 0.049 0.24 0.072 0.36 0.072 0.367 0 0.716-0.217 0.866-0.578 0.199-0.478-0.028-1.027-0.506-1.225z"></path>
<path d="M11.818 26.063c-0.478-0.199-1.027 0.028-1.226 0.506l-1.239 2.98c-0.199 0.478 0.028 1.027 0.506 1.225 0.118 0.049 0.239 0.072 0.359 0.072 0.367 0 0.716-0.217 0.866-0.578l1.239-2.98c0.199-0.478-0.028-1.027-0.506-1.225z"></path>
<path d="M1.731 11.085l2.98 1.239c0.118 0.049 0.239 0.072 0.359 0.072 0.367 0 0.716-0.217 0.866-0.578 0.199-0.478-0.028-1.027-0.506-1.226l-2.981-1.239c-0.478-0.199-1.027 0.028-1.226 0.506s0.028 1.027 0.506 1.226z"></path>
<path d="M26.073 11.841c0.149 0.362 0.499 0.58 0.867 0.58 0.119 0 0.24-0.023 0.357-0.071l2.983-1.232c0.479-0.198 0.706-0.746 0.509-1.224s-0.746-0.706-1.224-0.509l-2.984 1.232c-0.479 0.198-0.706 0.746-0.509 1.224z"></path>
<path d="M21.383 26.582c-0.198-0.479-0.746-0.706-1.224-0.509s-0.706 0.746-0.509 1.224l1.232 2.983c0.149 0.362 0.499 0.58 0.867 0.58 0.119 0 0.24-0.023 0.357-0.071 0.479-0.198 0.706-0.746 0.509-1.224l-1.232-2.983z"></path>
<path d="M5.927 20.159c-0.198-0.479-0.746-0.706-1.224-0.509l-2.983 1.232c-0.479 0.198-0.706 0.746-0.509 1.224 0.149 0.362 0.499 0.58 0.867 0.58 0.119 0 0.24-0.023 0.357-0.071l2.983-1.232c0.479-0.198 0.706-0.746 0.509-1.224z"></path>
<path d="M10.617 5.419c0.149 0.362 0.499 0.58 0.867 0.58 0.119 0 0.24-0.023 0.357-0.071 0.479-0.198 0.706-0.746 0.509-1.224l-1.232-2.983c-0.198-0.479-0.746-0.706-1.224-0.509s-0.706 0.746-0.509 1.224l1.232 2.983z"></path>
<path d="M16.937 24.637c4.351-0.469 7.75-4.163 7.75-8.637 0-4.79-3.897-8.688-8.688-8.688s-8.688 3.897-8.688 8.688c0 4.473 3.399 8.168 7.75 8.637v6.426c0 0.518 0.42 0.937 0.938 0.937s0.937-0.42 0.937-0.937v-6.426zM9.188 16c0-3.756 3.056-6.813 6.813-6.813s6.812 3.056 6.812 6.813c0 3.438-2.561 6.289-5.875 6.748v-3.578l0.212 0.212c0.366 0.366 0.96 0.366 1.326 0s0.366-0.96 0-1.326l-1.817-1.817c-0.362-0.362-0.949-0.367-1.316-0.009l-1.875 1.821c-0.371 0.361-0.38 0.954-0.019 1.326 0.184 0.189 0.428 0.284 0.672 0.284 0.235 0 0.471-0.088 0.653-0.265l0.289-0.281v3.633c-3.314-0.458-5.875-3.31-5.875-6.748z"></path>
</symbol>

<symbol id="icon-sunset" viewBox="0 0 32 32">
<path d="M16 5.103c0.518 0 0.937-0.42 0.937-0.938v-3.228c0-0.518-0.42-0.938-0.937-0.938s-0.938 0.42-0.938 0.938v3.228c0 0.518 0.42 0.938 0.938 0.938z"></path>
<path d="M31.063 15.063h-3.228c-0.518 0-0.937 0.42-0.937 0.938s0.42 0.937 0.937 0.937h3.228c0.518 0 0.937-0.42 0.937-0.937s-0.42-0.938-0.937-0.938z"></path>
<path d="M5.103 16c0-0.518-0.42-0.938-0.938-0.938h-3.228c-0.518 0-0.938 0.42-0.938 0.938s0.42 0.937 0.938 0.937h3.228c0.518 0 0.938-0.42 0.938-0.937z"></path>
<path d="M24.368 8.569c0.24 0 0.48-0.092 0.663-0.275l2.282-2.282c0.366-0.366 0.366-0.96 0-1.326s-0.96-0.366-1.326 0l-2.282 2.282c-0.366 0.366-0.366 0.96 0 1.326 0.183 0.183 0.423 0.275 0.663 0.275z"></path>
<path d="M25.031 23.705c-0.366-0.366-0.96-0.366-1.326 0s-0.366 0.96 0 1.326l2.282 2.282c0.183 0.183 0.423 0.275 0.663 0.275s0.48-0.092 0.663-0.275c0.366-0.366 0.366-0.96 0-1.326l-2.282-2.282z"></path>
<path d="M6.969 23.705l-2.282 2.282c-0.366 0.366-0.366 0.96 0 1.326 0.183 0.183 0.423 0.275 0.663 0.275s0.48-0.092 0.663-0.275l2.282-2.282c0.366-0.366 0.366-0.96 0-1.326s-0.96-0.366-1.326 0z"></path>
<path d="M6.969 8.294c0.183 0.183 0.423 0.275 0.663 0.275s0.48-0.092 0.663-0.275c0.366-0.366 0.366-0.96 0-1.326l-2.282-2.282c-0.366-0.366-0.96-0.366-1.326 0s-0.366 0.96 0 1.326l2.282 2.282z"></path>
<path d="M20.182 5.937c0.118 0.049 0.24 0.072 0.36 0.072 0.367 0 0.716-0.217 0.866-0.578l1.239-2.981c0.199-0.478-0.028-1.027-0.506-1.226s-1.027 0.028-1.225 0.506l-1.239 2.981c-0.199 0.478 0.028 1.027 0.506 1.225z"></path>
<path d="M30.269 20.915l-2.98-1.239c-0.478-0.199-1.027 0.028-1.226 0.506s0.028 1.027 0.506 1.225l2.981 1.239c0.118 0.049 0.239 0.072 0.359 0.072 0.368 0 0.716-0.217 0.866-0.578 0.199-0.478-0.028-1.027-0.506-1.226z"></path>
<path d="M11.818 26.063c-0.478-0.199-1.027 0.028-1.226 0.506l-1.239 2.98c-0.199 0.478 0.028 1.027 0.506 1.226 0.118 0.049 0.239 0.072 0.359 0.072 0.367 0 0.716-0.217 0.866-0.578l1.239-2.98c0.199-0.478-0.028-1.027-0.506-1.225z"></path>
<path d="M1.731 11.085l2.981 1.239c0.118 0.049 0.239 0.072 0.359 0.072 0.367 0 0.716-0.217 0.866-0.578 0.199-0.478-0.028-1.027-0.506-1.226l-2.981-1.239c-0.478-0.199-1.027 0.028-1.226 0.506s0.028 1.027 0.506 1.226z"></path>
<path d="M26.073 11.841c0.149 0.362 0.499 0.58 0.867 0.58 0.119 0 0.24-0.023 0.357-0.071l2.983-1.232c0.479-0.198 0.706-0.746 0.509-1.224s-0.746-0.706-1.224-0.509l-2.983 1.232c-0.479 0.198-0.706 0.746-0.509 1.224z"></path>
<path d="M21.383 26.582c-0.198-0.479-0.746-0.706-1.224-0.509s-0.706 0.746-0.509 1.224l1.232 2.984c0.149 0.362 0.499 0.58 0.867 0.58 0.119 0 0.24-0.023 0.357-0.071 0.479-0.198 0.707-0.746 0.509-1.224l-1.232-2.983z"></path>
<path d="M5.927 20.158c-0.198-0.479-0.746-0.706-1.224-0.509l-2.983 1.232c-0.479 0.198-0.706 0.746-0.509 1.224 0.149 0.362 0.499 0.58 0.867 0.58 0.119 0 0.24-0.023 0.357-0.071l2.983-1.232c0.479-0.198 0.706-0.746 0.509-1.224z"></path>
<path d="M10.617 5.419c0.149 0.362 0.499 0.58 0.867 0.58 0.119 0 0.24-0.023 0.357-0.071 0.479-0.198 0.706-0.746 0.509-1.224l-1.232-2.983c-0.198-0.479-0.746-0.706-1.224-0.509s-0.706 0.746-0.509 1.224l1.232 2.983z"></path>
<path d="M17.15 28.582l-0.212 0.212v-4.158c4.351-0.469 7.75-4.163 7.75-8.637 0-4.79-3.897-8.688-8.688-8.688s-8.688 3.897-8.688 8.688c0 4.473 3.399 8.168 7.75 8.637v4.213l-0.289-0.281c-0.371-0.361-0.965-0.352-1.326 0.019s-0.352 0.965 0.019 1.326l1.875 1.822c0.182 0.177 0.418 0.265 0.653 0.265 0.24 0 0.48-0.092 0.663-0.275l1.817-1.817c0.366-0.366 0.366-0.96 0-1.326s-0.96-0.366-1.326-0zM9.188 16c0-3.756 3.056-6.812 6.813-6.812s6.812 3.056 6.812 6.812c0 3.438-2.561 6.289-5.875 6.748v-2.225c0-0.518-0.42-0.937-0.937-0.937s-0.938 0.42-0.938 0.937v2.225c-3.314-0.458-5.875-3.309-5.875-6.748z"></path>
</symbol>

<symbol id="icon-clouds-and-sun" viewBox="0 0 32 32">
<path d="M19.218 21.205c-3.847 0-6.995-3.112-7.030-6.967-0.036-3.877 3.090-7.060 6.966-7.096 0.022-0 0.044-0 0.066-0 3.847 0 6.995 3.112 7.030 6.967 0.036 3.877-3.090 7.060-6.966 7.096-0.022 0-0.044 0-0.066 0z"></path>
<path d="M19.22 7.142c-0 0-0.001 0-0.001 0v14.063c0.021 0 0.043 0 0.065-0 3.877-0.035 7.002-3.219 6.966-7.096-0.035-3.855-3.183-6.967-7.030-6.967z"></path>
<path d="M19.246 5.806c-0.514 0-0.933-0.414-0.937-0.929l-0.023-2.538c-0.005-0.518 0.411-0.941 0.929-0.946h0.009c0.514 0 0.933 0.414 0.937 0.929l0.023 2.538c0.005 0.518-0.411 0.941-0.929 0.946-0.003 0-0.006 0-0.009 0z"></path>
<path d="M28.525 15.026c-0.514 0-0.933-0.414-0.937-0.929-0.005-0.518 0.411-0.941 0.929-0.946l2.547-0.023c0.514 0 0.933 0.414 0.937 0.929 0.005 0.518-0.411 0.941-0.929 0.946l-2.538 0.023c-0.003 0-0.006 0-0.009 0z"></path>
<path d="M25.851 8.471c-0.237 0-0.474-0.089-0.657-0.268-0.369-0.363-0.375-0.956-0.012-1.326l1.778-1.811c0.363-0.369 0.956-0.375 1.326-0.012s0.375 0.956 0.012 1.326l-1.778 1.811c-0.183 0.187-0.426 0.281-0.669 0.281z"></path>
<path d="M12.691 8.592c-0.237 0-0.474-0.089-0.657-0.268l-1.811-1.778c-0.369-0.363-0.375-0.956-0.012-1.326s0.956-0.375 1.326-0.012l1.811 1.778c0.369 0.363 0.375 0.956 0.012 1.326-0.184 0.187-0.426 0.281-0.669 0.281z"></path>
<path d="M22.824 6.486c-0.117 0-0.236-0.022-0.351-0.069-0.48-0.194-0.712-0.741-0.517-1.221l0.952-2.352c0.194-0.48 0.741-0.711 1.221-0.517s0.712 0.741 0.517 1.221l-0.952 2.352c-0.148 0.365-0.499 0.586-0.869 0.586z"></path>
<path d="M30.31 19.556c-0.117 0-0.236-0.022-0.351-0.069l-2.352-0.952c-0.48-0.194-0.712-0.741-0.517-1.221s0.741-0.711 1.221-0.517l2.352 0.952c0.48 0.194 0.712 0.741 0.517 1.221-0.148 0.365-0.499 0.586-0.869 0.586z"></path>
<path d="M10.706 11.619c-0.117 0-0.236-0.022-0.351-0.069l-2.352-0.953c-0.48-0.194-0.712-0.741-0.517-1.221s0.741-0.711 1.221-0.517l2.352 0.952c0.48 0.194 0.712 0.741 0.517 1.221-0.148 0.365-0.499 0.586-0.869 0.586z"></path>
<path d="M27.901 11.482c-0.365 0-0.712-0.215-0.864-0.572-0.202-0.477 0.021-1.027 0.498-1.229l2.337-0.99c0.477-0.202 1.027 0.021 1.229 0.498s-0.021 1.027-0.498 1.229l-2.337 0.99c-0.119 0.050-0.243 0.074-0.365 0.074z"></path>
<path d="M15.702 6.543c-0.365 0-0.712-0.215-0.864-0.572l-0.99-2.337c-0.202-0.477 0.021-1.027 0.498-1.229s1.027 0.021 1.229 0.498l0.99 2.337c0.202 0.477-0.021 1.027-0.498 1.229-0.119 0.051-0.243 0.075-0.365 0.075z"></path>
<path d="M13.937 30.607c-1.111 0-2.197-0.383-3.060-1.080-0.459-0.37-0.845-0.82-1.141-1.323-0.64 0.401-1.389 0.623-2.159 0.623-1.824 0-3.393-1.22-3.897-2.905-0.848-0.081-1.658-0.427-2.307-1.001-0.873-0.771-1.374-1.882-1.374-3.047 0-2.116 1.624-3.86 3.692-4.049 0.209-0.676 0.593-1.291 1.123-1.782 0.754-0.698 1.735-1.083 2.763-1.083 0.764 0 1.506 0.218 2.143 0.613 0.295-0.509 0.682-0.965 1.144-1.34 0.865-0.704 1.957-1.091 3.074-1.091s2.209 0.388 3.074 1.091c0.461 0.375 0.848 0.831 1.144 1.34 0.637-0.394 1.379-0.613 2.143-0.613 1.028 0 2.009 0.384 2.763 1.083 0.53 0.491 0.914 1.105 1.123 1.782 0.852 0.079 1.665 0.425 2.317 1.001 0.874 0.771 1.375 1.882 1.375 3.048s-0.501 2.276-1.374 3.047c-0.649 0.573-1.459 0.919-2.307 1.001-0.504 1.684-2.073 2.905-3.897 2.905-0.771 0-1.519-0.222-2.159-0.623-0.296 0.503-0.683 0.953-1.141 1.323-0.863 0.697-1.95 1.080-3.060 1.080z"></path>
<path d="M26.5 18.827c-0.652-0.575-1.465-0.921-2.317-1.001-0.209-0.677-0.593-1.291-1.123-1.782-0.754-0.698-1.735-1.083-2.763-1.083-0.764 0-1.506 0.218-2.143 0.613-0.295-0.509-0.682-0.965-1.144-1.34-0.865-0.704-1.957-1.091-3.074-1.091v17.464c1.111 0 2.197-0.384 3.060-1.080 0.459-0.37 0.845-0.82 1.141-1.323 0.64 0.401 1.389 0.623 2.159 0.623 1.824 0 3.393-1.22 3.897-2.905 0.848-0.081 1.658-0.427 2.307-1.001 0.873-0.771 1.374-1.882 1.374-3.047s-0.501-2.277-1.375-3.048z"></path>
<path d="M20.16 2.322c-0.005-0.515-0.423-0.929-0.937-0.929-0.001 0-0.003 0-0.004 0v4.411c0.009 0 0.018 0.001 0.028 0.001h0.009c0.518-0.005 0.934-0.428 0.929-0.946l-0.023-2.538z"></path>
</symbol>

<symbol id="icon-arrow-left" viewBox="0 0 32 32">
<path d="M16 32c-8.837 0-16-7.163-16-16s7.163-16 16-16c8.837 0 16 7.163 16 16s-7.163 16-16 16z"></path>
<path d="M20.571 13.714l-4.571 4.571-4.571-4.571"></path>
</symbol>

<symbol id="right-arrow-svgrepo" viewBox="0 0 32 32">
<path d="M24.301 14.971l-14.545-14.545c-0.568-0.568-1.489-0.568-2.057 0s-0.568 1.489 0 2.057l13.517 13.517-13.517 13.517c-0.568 0.568-0.568 1.489 0 2.057 0.284 0.284 0.656 0.426 1.028 0.426s0.745-0.142 1.029-0.426l14.545-14.546c0.273-0.273 0.426-0.643 0.426-1.028s-0.153-0.756-0.426-1.029z"></path>
</symbol>

<symbol id="icons8-instagram" viewBox="0 0 32 32">
<path fill="#304ffe" style="fill: var(--color1, #304ffe)" d="M27.78 8.987c-0.267 0.173-0.647 0.333-0.807 0.513-0.060 0.060-0.093 0.127-0.080 0.193v0.687l-0.2 0.673-0.42 1.4-0.453 1.5-0.44 1.48-0.333 1.113c0 0.173-0.007 0.347-0.020 0.513-0.047 0.64-0.18 1.253-0.393 1.827-0.127 0.353-0.28 0.693-0.467 1.013-0.067 0.127-0.147 0.253-0.227 0.373-0.267 0.42-0.587 0.807-0.94 1.147-0.273 0.273-0.573 0.527-0.9 0.74 0 0 0 0-0.007 0-0.053 0.047-0.113 0.087-0.18 0.12-0.207 0.14-0.427 0.26-0.653 0.367-0.153 0.080-0.307 0.147-0.467 0.207-0.033 0.020-0.073 0.033-0.107 0.047-0.38 0.18-0.82 0.3-1.26 0.36-0.027 0.007-0.047 0.007-0.073 0.013-0.267 0.047-0.527 0.087-0.793 0.107-0.12 0.013-0.247 0.020-0.367 0.020l-0.473-0.027-2.28-0.12c0-0.007-0.007 0-0.007 0l-1.147-0.060c-0.087 0-0.18 0-0.267-0.007-0.36-0.013-0.707-0.053-1.053-0.127-0.007 0-0.007 0-0.007 0-0.633-0.12-1.24-0.333-1.807-0.62-0.313-0.16-0.62-0.34-0.907-0.547-0.12-0.087-0.233-0.18-0.347-0.28-0.32-0.267-0.607-0.553-0.873-0.847-0.040-0.040-0.073-0.080-0.107-0.12-0.040-0.040-0.080-0.087-0.113-0.127-0.253-0.32-0.467-0.647-0.64-0.993-0.16-0.307-0.287-0.633-0.387-0.993-0.040-0.127-0.073-0.247-0.1-0.38-0.007-0.007-0.013-0.020-0.013-0.033-0.067-0.273-0.127-0.56-0.16-0.847-0.040-0.22-0.060-0.44-0.060-0.667-0.013-0.087-0.013-0.18-0.013-0.267l1.273-1.967 1.813-2.793 0.513-0.787 0.173-0.273v-0.687c0.013-0.153 0.020-0.313 0.013-0.46-0.007-0.467-0.1-0.92-0.253-1.353-0.147-0.46-0.353-0.893-0.567-1.293-0.253-0.46-0.52-0.873-0.74-1.247-0.327-0.547-0.553-0.993-0.493-1.307 0.48-0.113 0.987-0.173 1.5-0.173h10.667c2.787 0 5.187 1.733 6.18 4.173 0.107 0.26 0.2 0.533 0.267 0.813z"></path>
<path fill="#4928f4" style="fill: var(--color2, #4928f4)" d="M28 10.667v0.18l-6.52 3.78c0 0.32-0.080 0.613-0.227 0.88-0.207 0.387-0.553 0.707-0.993 0.98-0.447 0.273-0.993 0.493-1.607 0.653 0 0 0-0.007-0.007 0-2.373 0.613-5.613 0.333-7.187-0.84-0.44-0.327-0.747-0.727-0.88-1.187-0.040-0.153-0.060-0.32-0.060-0.487v-4.793c0.007-0.1-0.060-0.2-0.18-0.3-0.36-0.287-1.207-0.56-2.153-0.833-0.74-0.207-1.533-0.413-2.2-0.613-0.527-0.16-0.973-0.32-1.24-0.473 0.12-0.233 0.26-0.467 0.407-0.687 0.933-1.367 2.36-2.373 4.013-2.753 0.48-0.113 0.987-0.173 1.5-0.173h7.2c3.58 0.627 6.88 2.087 9.647 4.173 0.107 0.26 0.2 0.533 0.267 0.813 0.12 0.44 0.193 0.893 0.213 1.367 0.007 0.1 0.007 0.207 0.007 0.313z"></path>
<path fill="#6200ea" style="fill: var(--color3, #6200ea)" d="M28 10.667v2.94l-0.147 0.453-0.5 1.553-0.52 1.6-0.273 0.853-0.253 0.793-0.247 0.753-0.24 0.747-0.127 0.393-0.167 0.52c0 0.507-0.013 0.953-0.047 1.333-0.007 0.040-0.013 0.080-0.013 0.12-0.040 0.353-0.093 0.653-0.18 0.907-0.007 0.040-0.020 0.080-0.033 0.113-0.173 0.48-0.433 0.787-0.82 0.987-0.093 0.053-0.2 0.093-0.313 0.133-0.353 0.12-0.8 0.18-1.347 0.213-0.4 0.027-0.86 0.033-1.38 0.033h-0.46l-10.107-0.413c-0.52-0.007-0.967-0.040-1.353-0.093-0.56-0.087-0.993-0.233-1.32-0.453-0.467-0.3-0.74-0.74-0.9-1.353-0.040-0.147-0.073-0.3-0.093-0.467-0.067-0.387-0.1-0.833-0.12-1.333 0-0.1 0-0.2-0.007-0.307-0.007-0.007 0-0.007 0-0.007v-0.387c-0.007-0.193-0.007-0.393-0.007-0.6l0.033-1.073 0.020-0.767 0.027-0.893v-0.127l0.093-3.28 0.047-1.54 0.040-1.513 0.013-0.4c0-0.207-0.7-0.327-1.48-0.427-0.62-0.080-1.3-0.153-1.707-0.247 0.033-0.153 0.067-0.307 0.107-0.453 0.12-0.48 0.3-0.933 0.527-1.367 0.12-0.233 0.26-0.467 0.407-0.687 1.44-0.633 2.94-1.127 4.507-1.447 1.373-0.287 2.807-0.44 4.287-0.44 4.907 0 9.44 1.66 13.027 4.46 0.347 0.267 0.687 0.553 1.020 0.853 0.007 0.1 0.007 0.207 0.007 0.313z"></path>
<path fill="#673ab7" style="fill: var(--color4, #673ab7)" d="M28 12.247v3.027l-0.367 0.707-0.7 1.367-0.373 0.72-0.34 0.66-0.147 0.287c0 0.207 0 0.407-0.013 0.6 0 0.287-0.013 0.56-0.033 0.813-0.027 0.3-0.067 0.573-0.107 0.827-0.1 0.527-0.24 0.98-0.44 1.353-0.027 0.047-0.053 0.093-0.080 0.133-0.073 0.12-0.16 0.233-0.253 0.34-0.12 0.147-0.253 0.273-0.407 0.38-0.227 0.173-0.493 0.313-0.8 0.42-0.38 0.14-0.82 0.233-1.34 0.287-0.34 0.033-0.713 0.053-1.12 0.053l-0.28 0.013-9.313 0.54c-0.34 0-0.66-0.020-0.967-0.060-0.033-0.007-0.060-0.013-0.093-0.013-0.453-0.073-0.867-0.193-1.24-0.36-0.453-0.2-0.847-0.467-1.18-0.787-0.293-0.287-0.547-0.613-0.753-0.98-0.047-0.087-0.093-0.167-0.133-0.26-0.2-0.393-0.36-0.833-0.48-1.313-0.020-0.080-0.040-0.167-0.053-0.253-0.040-0.153-0.073-0.313-0.093-0.48-0.073-0.427-0.113-0.88-0.133-1.353v-0.007c-0.007-0.193-0.013-0.38-0.013-0.58l-0.327-0.78-0.047-0.12-0.040-0.1-0.5-1.193-0.080-0.193-0.48-1.153-0.533-1.287c0 0 0 0-0.007 0l-0.54-1.3-0.193-0.473v-1.060c0-0.42 0.040-0.833 0.113-1.233 0.033-0.153 0.067-0.307 0.107-0.453 0.567-0.327 1.16-0.627 1.767-0.893 1.387-0.62 2.873-1.080 4.413-1.36 1.147-0.207 2.34-0.32 3.547-0.32 4.873 0 9.293 1.767 12.747 4.647 0.133 0.107 0.26 0.213 0.387 0.327 0.313 0.273 0.62 0.56 0.92 0.867z"></path>
<path fill="#8e24aa" style="fill: var(--color5, #8e24aa)" d="M28 14.233v3.427l-0.38 0.793-0.72 1.5-0.007 0.020c0 0.287-0.013 0.547-0.033 0.78-0.067 0.767-0.253 1.253-0.56 1.553-0.22 0.227-0.493 0.353-0.833 0.42-0.020 0.007-0.047 0.007-0.067 0.013-0.107 0.020-0.22 0.033-0.34 0.033-0.413 0.040-0.9 0.013-1.46-0.027-0.060 0-0.127-0.007-0.193-0.013-0.407-0.027-0.84-0.053-1.32-0.073-0.26-0.007-0.533-0.013-0.813-0.013h-0.013l-0.68 0.053-1.513 0.107-1.98 0.153-2.020 0.147-1.047 0.080-1.033 0.073c-0.18 0-0.353 0-0.527-0.007 0 0-0.007-0.007-0.007 0-0.753-0.013-1.427-0.060-2.027-0.173-0.553-0.093-1.040-0.24-1.453-0.46-0.427-0.207-0.78-0.5-1.067-0.873-0.273-0.367-0.473-0.827-0.6-1.38 0-0.007 0-0.007 0-0.007-0.093-0.447-0.147-0.967-0.147-1.553l-0.1-0.18-0.593-1.060-0.087-0.147-0.047-0.093-0.62-1.1-0.307-0.553-0.387-0.687-0.667-1.193-0.353-0.627v-2.453c0.587-0.387 1.193-0.727 1.82-1.033 0.76-0.387 1.547-0.713 2.367-0.98 0.893-0.293 1.827-0.527 2.78-0.68 0.967-0.16 1.96-0.24 2.98-0.24 4.533 0 8.693 1.62 11.9 4.313 0.147 0.113 0.287 0.24 0.427 0.36 0.56 0.5 1.093 1.040 1.58 1.607 0.053 0.060 0.107 0.113 0.147 0.173z"></path>
<path fill="#c2185b" style="fill: var(--color6, #c2185b)" d="M28 16.473v4.82c-0.16-0.093-0.38-0.207-0.653-0.327-0.147-0.073-0.313-0.147-0.487-0.213-0.253-0.113-0.527-0.22-0.833-0.327-0.067-0.027-0.133-0.047-0.207-0.067-0.12-0.047-0.247-0.087-0.373-0.127-0.393-0.12-0.827-0.233-1.28-0.333-0.173-0.033-0.353-0.067-0.533-0.093-0.58-0.1-1.2-0.16-1.847-0.167-0.053-0.007-0.113-0.007-0.167-0.007l-1.713 0.013-2.34 0.013-4.993 0.040c-1.587 0-2.56 0.38-3.147 0.533 0 0-0.007 0-0.007 0.007-0.62 0.16-0.813 0.060-0.867-1.027-0.013-0.3-0.020-0.687-0.020-1.16l-0.373-0.287-0.653-0.493-0.4-0.307-0.080-0.060-1.273-0.967-0.347-0.267-0.64-0.48-0.767-0.587v-2.267c0.067-0.053 0.127-0.1 0.193-0.14 0.967-0.667 2-1.233 3.093-1.693 0.973-0.413 2-0.74 3.053-0.973 0.287-0.060 0.58-0.12 0.88-0.16 0.887-0.153 1.8-0.227 2.727-0.227 4.007 0 7.687 1.393 10.607 3.7 0.44 0.347 0.867 0.713 1.267 1.107 0.547 0.52 1.060 1.073 1.533 1.66 0.093 0.12 0.187 0.24 0.28 0.367 0.127 0.16 0.247 0.327 0.367 0.493z"></path>
<path fill="#d81b60" style="fill: var(--color7, #d81b60)" d="M28 19.147v2.187c0 0.433-0.040 0.86-0.12 1.273-0.12 0.613-0.327 1.2-0.607 1.747-0.147 0.033-0.313 0.033-0.5 0.007-0.42-0.073-0.913-0.293-1.447-0.58-0.027-0.007-0.053-0.020-0.073-0.033-0.167-0.087-0.34-0.18-0.513-0.287-0.353-0.193-0.727-0.407-1.1-0.607-0.080-0.040-0.16-0.080-0.233-0.12-0.427-0.22-0.867-0.42-1.307-0.573 0 0 0 0-0.007 0-0.093-0.033-0.193-0.067-0.293-0.093-0.38-0.107-0.767-0.173-1.14-0.173l-0.733-0.213-3.247-0.94c0 0 0 0-0.007 0l-2.867-0.833c-2.507 0-4.047 1.067-4.793 0.66-0.293-0.153-0.467-0.54-0.527-1.3-0.020-0.213-0.027-0.453-0.027-0.733l-0.78-0.38-0.033-0.013h-0.007l-0.56-0.28-0.613-0.293-0.047-0.020-0.113-0.060-2.307-1.12v-2.287c0.113-0.1 0.233-0.193 0.353-0.287 0.127-0.1 0.253-0.193 0.38-0.293 0.007 0 0.007 0 0.007 0 0.787-0.567 1.62-1.067 2.507-1.48 1.033-0.493 2.133-0.873 3.273-1.12 0.167-0.040 0.34-0.080 0.513-0.107 0.947-0.18 1.92-0.273 2.913-0.273 3.513 0 6.74 1.14 9.34 3.060 0.753 0.56 1.453 1.18 2.093 1.853 0.527 0.553 1.013 1.153 1.453 1.78 0.033 0.047 0.067 0.093 0.1 0.133 0.247 0.36 0.473 0.727 0.687 1.107 0.14 0.227 0.26 0.46 0.38 0.693z"></path>
<path fill="#f50057" style="fill: var(--color8, #f50057)" d="M27.88 22.607c-0.12 0.613-0.327 1.2-0.607 1.747-0.127 0.247-0.267 0.48-0.42 0.707-0.093 0.14-0.193 0.273-0.293 0.4-0.24-0.093-0.593-0.227-1.027-0.373 0 0 0 0 0-0.007-0.327-0.113-0.7-0.233-1.1-0.347-0.113-0.033-0.227-0.067-0.347-0.1-0.473-0.127-0.967-0.24-1.447-0.307-0.4-0.067-0.793-0.107-1.16-0.107l-0.307-0.087h-0.007l-9.687-2.787-2.64-0.627c0 0 0 0-0.007 0l-1.527-0.353c0-0.007 0-0.007 0-0.007l-0.273-0.060-0.14-0.033-1.113-0.26-0.127-0.033-0.947-0.78-0.707-0.593v-2.72c0.247-0.24 0.5-0.467 0.767-0.687 0.080-0.073 0.167-0.14 0.253-0.207 0.080-0.067 0.167-0.133 0.253-0.2 0.607-0.46 1.247-0.873 1.927-1.227 0.867-0.467 1.787-0.84 2.753-1.107 0.187-0.060 0.373-0.113 0.567-0.153 1.093-0.273 2.24-0.413 3.427-0.413 2.98 0 5.753 0.9 8.047 2.44 1.14 0.767 2.167 1.687 3.033 2.733 0.44 0.527 0.84 1.080 1.193 1.667 0.033 0.047 0.060 0.087 0.087 0.133 0.213 0.353 0.413 0.72 0.593 1.093 0.167 0.333 0.313 0.667 0.447 1.013 0.213 0.533 0.387 1.080 0.533 1.64z"></path>
<path fill="#ff1744" style="fill: var(--color9, #ff1744)" d="M26.853 25.060c-0.093 0.14-0.193 0.273-0.293 0.4-0.293 0.367-0.613 0.7-0.973 0.993-0.313 0.26-0.647 0.493-1 0.693-0.133-0.033-0.267-0.073-0.407-0.127-0.44-0.153-0.9-0.407-1.327-0.673-0.64-0.407-1.193-0.847-1.44-1.047-0.093-0.080-0.14-0.12-0.14-0.12l-10.080-0.893-6.633-3.213-0.56-0.173v-2.98c0.313-0.373 0.647-0.727 1-1.067 0.227-0.213 0.467-0.427 0.713-0.627 0.040-0.033 0.080-0.067 0.12-0.093 0.027-0.033 0.060-0.053 0.087-0.067 0.393-0.32 0.807-0.607 1.233-0.867 0.493-0.313 1.013-0.593 1.553-0.827 0.58-0.26 1.187-0.48 1.813-0.647 1.087-0.307 2.24-0.467 3.427-0.467 2.72 0 5.233 0.827 7.307 2.247 1.327 0.907 2.473 2.053 3.38 3.38 0.3 0.427 0.567 0.88 0.813 1.347 0.087 0.173 0.173 0.347 0.247 0.52 0.080 0.167 0.153 0.333 0.227 0.5 0.14 0.347 0.267 0.693 0.38 1.053 0.213 0.667 0.373 1.347 0.473 2.053 0.033 0.233 0.060 0.467 0.080 0.7z"></path>
<path fill="#ff5722" style="fill: var(--color10, #ff5722)" d="M25.593 26.28c0 0.053 0 0.113-0.007 0.173-0.313 0.26-0.647 0.493-1 0.693-0.147 0.080-0.293 0.16-0.447 0.227-0.153 0.073-0.307 0.14-0.467 0.2-0.227-0.12-0.533-0.267-0.86-0.407-0.46-0.207-0.96-0.393-1.347-0.453-0.093-0.020-0.18-0.027-0.26-0.027l-1.093-0.14h-0.013l-2.733-0.36-0.64-0.080-5.040-0.653c-0.327 0-0.673-0.020-1.033-0.067-0.44-0.040-0.9-0.107-1.36-0.2-0.453-0.080-0.913-0.187-1.353-0.3-0.46-0.107-0.913-0.233-1.333-0.353-0.487-0.147-0.94-0.287-1.32-0.413-0.313-0.1-0.58-0.193-0.787-0.267-0.12-0.287-0.22-0.587-0.293-0.893-0.14-0.52-0.207-1.067-0.207-1.627v-1.113c0.213-0.353 0.447-0.7 0.707-1.027 0.473-0.627 1.013-1.2 1.6-1.707 0.020-0.027 0.047-0.047 0.067-0.060l0.007-0.007c0.207-0.187 0.42-0.353 0.647-0.513 0.027-0.027 0.053-0.047 0.080-0.067 0.107-0.080 0.22-0.16 0.34-0.233 0.953-0.647 2.007-1.153 3.133-1.493 1.067-0.32 2.193-0.487 3.367-0.487 2.327 0 4.5 0.687 6.313 1.86 1.34 0.86 2.493 1.993 3.373 3.32 0.107 0.153 0.207 0.307 0.307 0.467 0.46 0.78 0.84 1.62 1.12 2.5 0.033 0.1 0.060 0.2 0.087 0.307 0.053 0.18 0.1 0.367 0.14 0.553 0.013 0.047 0.027 0.093 0.040 0.147 0.093 0.42 0.16 0.86 0.207 1.3 0 0.007 0 0.007 0 0.007 0.040 0.393 0.060 0.793 0.060 1.193z"></path>
<path fill="#ff6f00" style="fill: var(--color11, #ff6f00)" d="M24.22 26.28c0 0.233-0.013 0.487-0.040 0.74-0.013 0.12-0.027 0.24-0.040 0.353-0.153 0.073-0.307 0.14-0.467 0.2-0.3 0.113-0.607 0.207-0.92 0.273-0.213 0.047-0.433 0.087-0.653 0.107h-0.007c-0.207-0.127-0.447-0.28-0.693-0.453-0.447-0.313-0.913-0.667-1.287-0.953-0.007-0.007-0.007-0.007-0.013-0.013-0.393-0.3-0.673-0.527-0.673-0.527l-0.707 0.027-1.36 0.047-0.633 0.027-4.7 0.173c-0.14 0.007-0.307 0.007-0.513 0h-0.007c-0.28-0.007-0.613-0.027-0.98-0.060-0.427-0.033-0.893-0.073-1.367-0.12-0.46-0.053-0.927-0.107-1.373-0.16-0.493-0.053-0.96-0.113-1.36-0.167-0.313-0.040-0.587-0.073-0.807-0.1-0.187-0.213-0.353-0.433-0.513-0.673-0.24-0.36-0.447-0.74-0.607-1.147-0.12-0.287-0.22-0.587-0.293-0.893 0.193-0.593 0.447-1.153 0.747-1.693 0.24-0.44 0.52-0.86 0.827-1.26 0.3-0.393 0.627-0.76 0.98-1.093v-0.007c0.1-0.1 0.2-0.193 0.3-0.28 0.187-0.173 0.38-0.333 0.58-0.487h0.007c0.007-0.013 0.013-0.013 0.020-0.020 0.16-0.127 0.327-0.24 0.493-0.353 0.987-0.673 2.1-1.173 3.3-1.467 0.793-0.193 1.627-0.3 2.487-0.3 1.693 0 3.293 0.407 4.7 1.14h0.007c1.207 0.62 2.273 1.473 3.133 2.5 0.473 0.547 0.88 1.147 1.213 1.78 0.233 0.427 0.433 0.873 0.6 1.327 0.013 0.040 0.027 0.073 0.040 0.107 0.113 0.333 0.213 0.68 0.3 1.027 0.060 0.247 0.107 0.5 0.147 0.753 0.013 0.080 0.027 0.153 0.033 0.233 0.067 0.46 0.1 0.933 0.1 1.413z"></path>
<path fill="#ff9800" style="fill: var(--color12, #ff9800)" d="M22.853 26.28v0.067c0 0.227-0.020 0.513-0.040 0.82-0.020 0.227-0.040 0.46-0.060 0.68-0.213 0.047-0.433 0.087-0.653 0.107h-0.007c-0.253 0.033-0.5 0.047-0.76 0.047h-1.167l-0.253-0.073-1.313-0.4-5.753-1.727c0 0-0.553 0.22-1.333 0.48h-0.007c-0.3 0.1-0.627 0.207-0.973 0.313-0.433 0.127-0.893 0.253-1.347 0.353-0.467 0.107-0.927 0.187-1.34 0.22-0.127 0.013-0.253 0.020-0.367 0.020-0.373-0.207-0.733-0.453-1.060-0.727-0.287-0.24-0.553-0.5-0.8-0.787-0.187-0.213-0.353-0.433-0.513-0.673 0.047-0.3 0.1-0.593 0.18-0.88 0.2-0.793 0.513-1.553 0.927-2.247 0.227-0.393 0.48-0.773 0.773-1.127 0.007-0.020 0.027-0.040 0.047-0.053-0.007-0.007 0-0.007 0-0.007 0.087-0.113 0.18-0.22 0.273-0.32 0-0.007 0-0.007 0-0.007 0.273-0.293 0.553-0.573 0.86-0.833 0.107-0.087 0.207-0.173 0.32-0.26 0.020-0.020 0.040-0.033 0.067-0.053 1.5-1.147 3.373-1.84 5.393-1.84 2.293 0 4.38 0.86 5.96 2.273 0.76 0.687 1.407 1.507 1.893 2.42 0.040 0.067 0.080 0.14 0.113 0.213 0.060 0.12 0.12 0.247 0.173 0.38 0.22 0.48 0.393 0.987 0.513 1.507 0.013 0.053 0.027 0.107 0.040 0.16 0.053 0.247 0.1 0.5 0.133 0.753 0.053 0.393 0.080 0.793 0.080 1.2z"></path>
<path fill="#ffc107" style="fill: var(--color13, #ffc107)" d="M21.48 26.28c0 0.133-0.007 0.28-0.013 0.433-0.013 0.247-0.033 0.513-0.067 0.787-0.013 0.167-0.040 0.333-0.067 0.5h-3.653l-4.76-0.76c-0.393 0-1.247 0.173-2.147 0.34-0.473 0.087-0.953 0.18-1.387 0.24-0.053 0.007-0.107 0.013-0.153 0.020h-0.007c-0.467-0.1-0.92-0.253-1.347-0.453-0.133-0.060-0.267-0.127-0.4-0.2-0.373-0.207-0.733-0.453-1.060-0.727-0.007-0.080-0.013-0.147-0.013-0.18 0-0.173 0.007-0.34 0.020-0.507 0.027-0.427 0.087-0.84 0.18-1.24 0.147-0.607 0.36-1.193 0.647-1.733 0.053-0.113 0.113-0.227 0.18-0.333 0.027-0.053 0.060-0.1 0.087-0.153 0.12-0.193 0.253-0.38 0.387-0.567 0.28-0.367 0.593-0.713 0.927-1.027 0.007 0 0.007 0 0.007 0 0.027-0.027 0.053-0.053 0.080-0.073 0.033-0.027 0.060-0.060 0.093-0.080 0.133-0.12 0.267-0.227 0.407-0.327 0-0.007 0.007-0.007 0.007-0.007 1.26-0.94 2.82-1.493 4.52-1.493 1.32 0 2.547 0.333 3.62 0.92h0.007c0.92 0.507 1.72 1.193 2.353 2.020 0.247 0.32 0.467 0.66 0.653 1.020h0.007c0.033 0.067 0.067 0.133 0.1 0.2 0.2 0.393 0.36 0.807 0.48 1.233h0.007c0.007 0.033 0.020 0.067 0.027 0.1 0.080 0.287 0.147 0.58 0.193 0.88 0.007 0.060 0.013 0.127 0.020 0.187 0.047 0.32 0.067 0.647 0.067 0.98z"></path>
<path fill="#ffd54f" style="fill: var(--color14, #ffd54f)" d="M20.113 26.207c0 0.107 0 0.22-0.013 0.327v0.007c0 0.007 0 0.007 0 0.007-0.013 0.48-0.080 0.953-0.187 1.38 0 0.027-0.007 0.047-0.020 0.073h-3.113l-2.907-0.627-0.053 0.013-2.973 0.613h-0.18c-0.427 0-0.847-0.040-1.253-0.12-0.060-0.013-0.12-0.027-0.18-0.040h-0.007c-0.467-0.1-0.92-0.253-1.347-0.453-0.013-0.073-0.027-0.147-0.033-0.22-0.047-0.287-0.067-0.587-0.067-0.887 0-0.113 0-0.227 0.007-0.34 0.020-0.36 0.073-0.713 0.153-1.053 0.053-0.253 0.127-0.5 0.213-0.733 0.073-0.207 0.16-0.407 0.253-0.6 0.080-0.167 0.173-0.327 0.267-0.487 0.093-0.153 0.193-0.3 0.3-0.447 0.267-0.367 0.58-0.707 0.927-1.007 0.2-0.173 0.42-0.34 0.647-0.487 0.973-0.64 2.14-1.013 3.4-1.013 0.247 0 0.487 0.013 0.72 0.047h0.013c0.713 0.080 1.38 0.28 1.993 0.58 0.007 0 0.007 0 0.007 0 0.967 0.473 1.787 1.187 2.387 2.067 0.1 0.147 0.2 0.307 0.287 0.467 0.073 0.127 0.14 0.26 0.2 0.393 0.093 0.207 0.18 0.427 0.253 0.647h0.007c0.073 0.247 0.14 0.493 0.187 0.753v0.007c0.073 0.367 0.113 0.747 0.113 1.133z"></path>
<path fill="#ffe082" style="fill: var(--color15, #ffe082)" d="M18.74 26.347v0.020c0 0.393-0.047 0.78-0.14 1.16-0.033 0.16-0.080 0.32-0.14 0.473h-2.987l-1.527-0.42-1.527 0.42h-1.753c-0.427 0-0.847-0.040-1.253-0.12-0.013-0.020-0.020-0.040-0.027-0.060-0.093-0.287-0.167-0.573-0.2-0.873-0.027-0.193-0.040-0.393-0.040-0.6 0-0.080 0-0.167 0.013-0.247 0.007-0.313 0.053-0.62 0.133-0.913 0.040-0.2 0.1-0.393 0.18-0.58 0.027-0.093 0.067-0.18 0.113-0.267 0.1-0.227 0.22-0.447 0.353-0.66 0.147-0.213 0.307-0.413 0.487-0.6 0.213-0.24 0.453-0.46 0.727-0.64 0.467-0.34 1-0.593 1.58-0.733 0.387-0.107 0.793-0.16 1.213-0.16 1.333 0 2.527 0.533 3.393 1.393 0.033 0.033 0.073 0.073 0.107 0.12h0.007c0.093 0.1 0.18 0.2 0.267 0.313 0.247 0.313 0.453 0.653 0.613 1.027 0.080 0.173 0.147 0.353 0.2 0.54 0.007 0.027 0.013 0.047 0.020 0.073 0.093 0.327 0.153 0.667 0.167 1.020 0.013 0.1 0.020 0.207 0.020 0.313z"></path>
<path fill="#ffecb3" style="fill: var(--color16, #ffecb3)" d="M17.373 26.347c0 0.273-0.033 0.533-0.107 0.78-0.067 0.267-0.167 0.52-0.293 0.76-0.020 0.040-0.067 0.113-0.067 0.113h-5.92c-0.007-0.007-0.013-0.020-0.013-0.027-0.080-0.127-0.147-0.253-0.2-0.393-0.133-0.307-0.213-0.64-0.24-0.987-0.013-0.080-0.013-0.167-0.013-0.247 0-0.040 0-0.087 0.007-0.127 0.007-0.293 0.047-0.573 0.127-0.833 0.067-0.24 0.153-0.46 0.267-0.673 0 0 0.007-0.007 0.007-0.013 0.080-0.14 0.167-0.28 0.267-0.413 0.327-0.44 0.76-0.8 1.26-1.033 0.007 0 0.007 0 0.007 0 0.16-0.080 0.327-0.147 0.5-0.193 0 0 0 0 0.007 0 0.307-0.093 0.64-0.14 0.98-0.14 0.393 0 0.773 0.060 1.12 0.187 0.127 0.033 0.247 0.087 0.367 0.147 0 0 0 0 0.007 0 0.573 0.273 1.060 0.7 1.393 1.233 0.067 0.1 0.127 0.207 0.18 0.32 0.027 0.047 0.053 0.1 0.073 0.147 0.153 0.347 0.247 0.727 0.273 1.127 0.007 0.033 0.007 0.067 0.007 0.107 0.007 0.053 0.007 0.107 0.007 0.16z"></path>
<path fill="none" stroke="#fff" style="stroke: var(--color17, #fff)" stroke-linejoin="round" stroke-linecap="round" stroke-miterlimit="10" stroke-width="1.3333" d="M20 7.333h-8c-2.6 0-4.667 2.067-4.667 4.667v8c0 2.6 2.067 4.667 4.667 4.667h8c2.6 0 4.667-2.067 4.667-4.667v-8c0-2.6-2.067-4.667-4.667-4.667z"></path>
<path fill="#fff" style="fill: var(--color17, #fff)" d="M21.333 10.667c0 0.368-0.298 0.667-0.667 0.667s-0.667-0.298-0.667-0.667c0-0.368 0.298-0.667 0.667-0.667s0.667 0.298 0.667 0.667z"></path>
<path fill="none" stroke="#fff" style="stroke: var(--color17, #fff)" stroke-linejoin="round" stroke-linecap="round" stroke-miterlimit="10" stroke-width="1.3333" d="M20 16c0 2.209-1.791 4-4 4s-4-1.791-4-4c0-2.209 1.791-4 4-4s4 1.791 4 4z"></path>
</symbol>

<symbol id="icons8-twitter" viewBox="0 0 32 32">
<path d="M3.789 3.84l9.384 13.68-9.185 10.64h2.035l8.049-9.33 6.4 9.33h7.689l-9.804-14.291 8.651-10.029h-2.029l-7.523 8.715-5.979-8.715h-7.689zM6.219 5.12h4.585l14.926 21.76h-4.585l-14.926-21.76z"></path>
</symbol>

<symbol id="icons8-whatsapp" viewBox="0 0 32 32">
<path fill="#fff" style="fill: var(--color17, #fff)" d="M3.245 28.869l1.796-6.557c-1.108-1.919-1.691-4.096-1.69-6.326 0.003-6.977 5.681-12.653 12.658-12.653 3.386 0.001 6.563 1.319 8.953 3.711s3.705 5.571 3.704 8.952c-0.003 6.977-5.681 12.653-12.657 12.653-0.001 0 0 0 0 0h-0.005c-2.118-0.001-4.2-0.532-6.049-1.541z"></path>
<path fill="#fff" style="fill: var(--color17, #fff)" d="M3.245 29.202c-0.088 0-0.173-0.035-0.237-0.099-0.083-0.085-0.116-0.208-0.085-0.322l1.759-6.424c-1.091-1.937-1.666-4.137-1.665-6.371 0.003-7.161 5.83-12.987 12.991-12.987 3.473 0.001 6.737 1.354 9.189 3.809s3.803 5.718 3.801 9.187c-0.003 7.161-5.831 12.987-12.991 12.987-2.126-0.001-4.229-0.525-6.096-1.518l-6.583 1.726c-0.028 0.008-0.056 0.011-0.085 0.011z"></path>
<path fill="#cfd8dc" style="fill: var(--color18, #cfd8dc)" d="M16.009 3.333c3.386 0.001 6.563 1.319 8.953 3.711s3.705 5.571 3.704 8.952c-0.003 6.977-5.681 12.653-12.657 12.653h-0.005c-2.118-0.001-4.2-0.532-6.049-1.541l-6.71 1.76 1.796-6.557c-1.108-1.919-1.691-4.096-1.69-6.326 0.003-6.977 5.681-12.653 12.658-12.653zM16.009 28.649v0 0zM16.009 28.649v0 0zM16.009 2.667v0c-7.344 0-13.321 5.975-13.325 13.319-0.001 2.245 0.566 4.457 1.641 6.415l-1.723 6.293c-0.063 0.23 0.001 0.475 0.169 0.645 0.127 0.128 0.298 0.198 0.474 0.198 0.057 0 0.113-0.007 0.169-0.022l6.458-1.693c1.885 0.979 3.999 1.495 6.131 1.496 7.349 0 13.327-5.975 13.33-13.32 0.001-3.559-1.383-6.906-3.899-9.423-2.517-2.518-5.864-3.905-9.426-3.907z"></path>
<path fill="#40c351" style="fill: var(--color19, #40c351)" d="M23.451 8.555c-1.987-1.988-4.627-3.083-7.438-3.084-5.803 0-10.522 4.717-10.525 10.516-0.001 1.987 0.555 3.922 1.609 5.597l0.251 0.398-1.063 3.881 3.982-1.044 0.385 0.228c1.615 0.959 3.467 1.465 5.355 1.466h0.004c5.799 0 10.518-4.718 10.52-10.517 0.001-2.81-1.092-5.453-3.079-7.441z"></path>
<path fill="#fff" style="fill: var(--color17, #fff)" d="M12.845 10.697c-0.237-0.527-0.486-0.537-0.712-0.547-0.185-0.008-0.395-0.007-0.606-0.007s-0.553 0.079-0.843 0.396c-0.29 0.317-1.107 1.081-1.107 2.637s1.133 3.060 1.291 3.271c0.158 0.211 2.188 3.506 5.403 4.774 2.671 1.053 3.215 0.844 3.795 0.791s1.871-0.765 2.135-1.503c0.263-0.739 0.263-1.371 0.185-1.503s-0.29-0.211-0.606-0.369-1.871-0.923-2.161-1.029c-0.29-0.105-0.501-0.158-0.712 0.159s-0.817 1.029-1.001 1.239c-0.185 0.211-0.369 0.238-0.685 0.079s-1.335-0.492-2.543-1.569c-0.94-0.838-1.575-1.873-1.759-2.19s-0.020-0.487 0.139-0.645c0.142-0.142 0.316-0.369 0.475-0.554s0.211-0.317 0.316-0.527c0.105-0.211 0.053-0.396-0.027-0.554-0.078-0.159-0.693-1.723-0.974-2.348z"></path>
</symbol>

<symbol id="facebook_chat_icon" viewBox="0 0 32 32">
<path fill="#1976d2" style="fill: var(--color20, #1976d2)" d="M6.827 0h18.347c3.77 0 6.827 3.056 6.827 6.827v18.347c0 3.77-3.056 6.827-6.827 6.827h-18.347c-3.77 0-6.827-3.056-6.827-6.827v-18.347c0-3.77 3.056-6.827 6.827-6.827z"></path>
<path fill="#fff" style="fill: var(--color17, #fff)" d="M19.672 16.467h-2.564v9.392h-3.884v-9.392h-1.847v-3.302h1.847v-2.136c0-1.527 0.725-3.92 3.919-3.92l2.876 0.012v3.204h-2.087c-0.343 0-0.824 0.171-0.824 0.899v1.943h2.904l-0.34 3.298z"></path>
</symbol>

<symbol id="icon-circle-down" viewBox="0 0 32 32">
<path d="M32 16c0-8.837-7.163-16-16-16s-16 7.163-16 16 7.163 16 16 16 16-7.163 16-16zM3 16c0-7.18 5.82-13 13-13s13 5.82 13 13-5.82 13-13 13-13-5.82-13-13z"></path>
<path d="M9.914 11.086l-2.829 2.829 8.914 8.914 8.914-8.914-2.828-2.828-6.086 6.086z"></path>
</symbol>



</defs>   
</svg> 